<?xml version="1.0" encoding="UTF-8"?>
<svg width="623px" height="1111px" viewBox="0 0 623 1111" version="1.1" xmlns="http://www.w3.org/2000/svg" xmlns:xlink="http://www.w3.org/1999/xlink">
    <title>Background</title>
    <defs>
        <circle id="path-1" cx="1010" cy="553" r="12"></circle>
        <filter x="-425.0%" y="-583.3%" width="1283.3%" height="1283.3%" filterUnits="objectBoundingBox" id="filter-2">
            <feMorphology radius="2" operator="dilate" in="SourceAlpha" result="shadowSpreadOuter1"></feMorphology>
            <feOffset dx="40" dy="2" in="shadowSpreadOuter1" result="shadowOffsetOuter1"></feOffset>
            <feMorphology radius="2" operator="erode" in="SourceAlpha" result="shadowInner"></feMorphology>
            <feOffset dx="40" dy="2" in="shadowInner" result="shadowInner"></feOffset>
            <feComposite in="shadowOffsetOuter1" in2="shadowInner" operator="out" result="shadowOffsetOuter1"></feComposite>
            <feGaussianBlur stdDeviation="40" in="shadowOffsetOuter1" result="shadowBlurOuter1"></feGaussianBlur>
            <feColorMatrix values="0 0 0 0 0   0 0 0 0 0   0 0 0 0 0  0 0 0 0.5 0" type="matrix" in="shadowBlurOuter1"></feColorMatrix>
        </filter>
    </defs>
    <g id="Main-Files" stroke="none" stroke-width="1" fill="none" fill-rule="evenodd">
        <g id="02_Index_Portfolio" transform="translate(0.000000, -856.000000)">
            <g id="02_About-&amp;-Expertise" transform="translate(-512.000000, 856.000000)">
                <g id="Background">
                    <rect id="Rectangle" fill="#3138D1" transform="translate(512.000000, 640.000000) rotate(-45.000000) translate(-512.000000, -640.000000) " x="150" y="278" width="724" height="724" rx="100"></rect>
                    <g id="Ornament/Dotted/white" transform="translate(573.000000, 411.000000)" fill="#FFFFFF">
                        <g>
                            <path d="M4.94444444,2.47222222 C4.94444444,3.83750694 3.83750694,4.94444444 2.47222222,4.94444444 C1.1069375,4.94444444 0,3.83750694 0,2.47222222 C0,1.1069375 1.1069375,0 2.47222222,0 C3.83750694,0 4.94444444,1.1069375 4.94444444,2.47222222" id="Fill-1"></path>
                            <path d="M29.6666667,2.47222222 C29.6666667,3.83750694 28.5597292,4.94444444 27.1944444,4.94444444 C25.8291597,4.94444444 24.7222222,3.83750694 24.7222222,2.47222222 C24.7222222,1.1069375 25.8291597,0 27.1944444,0 C28.5597292,0 29.6666667,1.1069375 29.6666667,2.47222222" id="Fill-3"></path>
                            <path d="M54.3888889,2.47222222 C54.3888889,3.83750694 53.2819514,4.94444444 51.9166667,4.94444444 C50.5513819,4.94444444 49.4444444,3.83750694 49.4444444,2.47222222 C49.4444444,1.1069375 50.5513819,0 51.9166667,0 C53.2819514,0 54.3888889,1.1069375 54.3888889,2.47222222" id="Fill-5"></path>
                            <path d="M79.1111111,2.47222222 C79.1111111,3.83750694 78.0041736,4.94444444 76.6388889,4.94444444 C75.2736042,4.94444444 74.1666667,3.83750694 74.1666667,2.47222222 C74.1666667,1.1069375 75.2736042,0 76.6388889,0 C78.0041736,0 79.1111111,1.1069375 79.1111111,2.47222222" id="Fill-7"></path>
                            <path d="M103.833333,2.47222222 C103.833333,3.83750694 102.726396,4.94444444 101.361111,4.94444444 C99.9958264,4.94444444 98.8888889,3.83750694 98.8888889,2.47222222 C98.8888889,1.1069375 99.9958264,0 101.361111,0 C102.726396,0 103.833333,1.1069375 103.833333,2.47222222" id="Fill-9"></path>
                            <path d="M128.555556,2.47222222 C128.555556,3.83750694 127.448618,4.94444444 126.083333,4.94444444 C124.718049,4.94444444 123.611111,3.83750694 123.611111,2.47222222 C123.611111,1.1069375 124.718049,0 126.083333,0 C127.448618,0 128.555556,1.1069375 128.555556,2.47222222" id="Fill-11"></path>
                            <path d="M153.277778,2.47222222 C153.277778,3.83750694 152.17084,4.94444444 150.805556,4.94444444 C149.440271,4.94444444 148.333333,3.83750694 148.333333,2.47222222 C148.333333,1.1069375 149.440271,0 150.805556,0 C152.17084,0 153.277778,1.1069375 153.277778,2.47222222" id="Fill-13"></path>
                            <path d="M178,2.47222222 C178,3.83750694 176.893063,4.94444444 175.527778,4.94444444 C174.162493,4.94444444 173.055556,3.83750694 173.055556,2.47222222 C173.055556,1.1069375 174.162493,0 175.527778,0 C176.893063,0 178,1.1069375 178,2.47222222" id="Fill-15"></path>
                            <path d="M4.94444444,27.1944444 C4.94444444,28.5597292 3.83750694,29.6666667 2.47222222,29.6666667 C1.1069375,29.6666667 0,28.5597292 0,27.1944444 C0,25.8291597 1.1069375,24.7222222 2.47222222,24.7222222 C3.83750694,24.7222222 4.94444444,25.8291597 4.94444444,27.1944444" id="Fill-17"></path>
                            <path d="M29.6666667,27.1944444 C29.6666667,28.5597292 28.5597292,29.6666667 27.1944444,29.6666667 C25.8291597,29.6666667 24.7222222,28.5597292 24.7222222,27.1944444 C24.7222222,25.8291597 25.8291597,24.7222222 27.1944444,24.7222222 C28.5597292,24.7222222 29.6666667,25.8291597 29.6666667,27.1944444" id="Fill-19"></path>
                            <path d="M54.3888889,27.1944444 C54.3888889,28.5597292 53.2819514,29.6666667 51.9166667,29.6666667 C50.5513819,29.6666667 49.4444444,28.5597292 49.4444444,27.1944444 C49.4444444,25.8291597 50.5513819,24.7222222 51.9166667,24.7222222 C53.2819514,24.7222222 54.3888889,25.8291597 54.3888889,27.1944444" id="Fill-21"></path>
                            <path d="M79.1111111,27.1944444 C79.1111111,28.5597292 78.0041736,29.6666667 76.6388889,29.6666667 C75.2736042,29.6666667 74.1666667,28.5597292 74.1666667,27.1944444 C74.1666667,25.8291597 75.2736042,24.7222222 76.6388889,24.7222222 C78.0041736,24.7222222 79.1111111,25.8291597 79.1111111,27.1944444" id="Fill-23"></path>
                            <path d="M103.833333,27.1944444 C103.833333,28.5597292 102.726396,29.6666667 101.361111,29.6666667 C99.9958264,29.6666667 98.8888889,28.5597292 98.8888889,27.1944444 C98.8888889,25.8291597 99.9958264,24.7222222 101.361111,24.7222222 C102.726396,24.7222222 103.833333,25.8291597 103.833333,27.1944444" id="Fill-25"></path>
                            <path d="M128.555556,27.1944444 C128.555556,28.5597292 127.448618,29.6666667 126.083333,29.6666667 C124.718049,29.6666667 123.611111,28.5597292 123.611111,27.1944444 C123.611111,25.8291597 124.718049,24.7222222 126.083333,24.7222222 C127.448618,24.7222222 128.555556,25.8291597 128.555556,27.1944444" id="Fill-27"></path>
                            <path d="M153.277778,27.1944444 C153.277778,28.5597292 152.17084,29.6666667 150.805556,29.6666667 C149.440271,29.6666667 148.333333,28.5597292 148.333333,27.1944444 C148.333333,25.8291597 149.440271,24.7222222 150.805556,24.7222222 C152.17084,24.7222222 153.277778,25.8291597 153.277778,27.1944444" id="Fill-29"></path>
                            <path d="M178,27.1944444 C178,28.5597292 176.893063,29.6666667 175.527778,29.6666667 C174.162493,29.6666667 173.055556,28.5597292 173.055556,27.1944444 C173.055556,25.8291597 174.162493,24.7222222 175.527778,24.7222222 C176.893063,24.7222222 178,25.8291597 178,27.1944444" id="Fill-31"></path>
                            <path d="M4.94444444,51.9166667 C4.94444444,53.2819514 3.83750694,54.3888889 2.47222222,54.3888889 C1.1069375,54.3888889 0,53.2819514 0,51.9166667 C0,50.5513819 1.1069375,49.4444444 2.47222222,49.4444444 C3.83750694,49.4444444 4.94444444,50.5513819 4.94444444,51.9166667" id="Fill-33"></path>
                            <path d="M29.6666667,51.9166667 C29.6666667,53.2819514 28.5597292,54.3888889 27.1944444,54.3888889 C25.8291597,54.3888889 24.7222222,53.2819514 24.7222222,51.9166667 C24.7222222,50.5513819 25.8291597,49.4444444 27.1944444,49.4444444 C28.5597292,49.4444444 29.6666667,50.5513819 29.6666667,51.9166667" id="Fill-35"></path>
                            <path d="M54.3888889,51.9166667 C54.3888889,53.2819514 53.2819514,54.3888889 51.9166667,54.3888889 C50.5513819,54.3888889 49.4444444,53.2819514 49.4444444,51.9166667 C49.4444444,50.5513819 50.5513819,49.4444444 51.9166667,49.4444444 C53.2819514,49.4444444 54.3888889,50.5513819 54.3888889,51.9166667" id="Fill-37"></path>
                            <path d="M79.1111111,51.9166667 C79.1111111,53.2819514 78.0041736,54.3888889 76.6388889,54.3888889 C75.2736042,54.3888889 74.1666667,53.2819514 74.1666667,51.9166667 C74.1666667,50.5513819 75.2736042,49.4444444 76.6388889,49.4444444 C78.0041736,49.4444444 79.1111111,50.5513819 79.1111111,51.9166667" id="Fill-39"></path>
                            <path d="M103.833333,51.9166667 C103.833333,53.2819514 102.726396,54.3888889 101.361111,54.3888889 C99.9958264,54.3888889 98.8888889,53.2819514 98.8888889,51.9166667 C98.8888889,50.5513819 99.9958264,49.4444444 101.361111,49.4444444 C102.726396,49.4444444 103.833333,50.5513819 103.833333,51.9166667" id="Fill-41"></path>
                            <path d="M128.555556,51.9166667 C128.555556,53.2819514 127.448618,54.3888889 126.083333,54.3888889 C124.718049,54.3888889 123.611111,53.2819514 123.611111,51.9166667 C123.611111,50.5513819 124.718049,49.4444444 126.083333,49.4444444 C127.448618,49.4444444 128.555556,50.5513819 128.555556,51.9166667" id="Fill-43"></path>
                            <path d="M153.277778,51.9166667 C153.277778,53.2819514 152.17084,54.3888889 150.805556,54.3888889 C149.440271,54.3888889 148.333333,53.2819514 148.333333,51.9166667 C148.333333,50.5513819 149.440271,49.4444444 150.805556,49.4444444 C152.17084,49.4444444 153.277778,50.5513819 153.277778,51.9166667" id="Fill-45"></path>
                            <path d="M178,51.9166667 C178,53.2819514 176.893063,54.3888889 175.527778,54.3888889 C174.162493,54.3888889 173.055556,53.2819514 173.055556,51.9166667 C173.055556,50.5513819 174.162493,49.4444444 175.527778,49.4444444 C176.893063,49.4444444 178,50.5513819 178,51.9166667" id="Fill-47"></path>
                            <path d="M4.94444444,76.6388889 C4.94444444,78.0041736 3.83750694,79.1111111 2.47222222,79.1111111 C1.1069375,79.1111111 0,78.0041736 0,76.6388889 C0,75.2736042 1.1069375,74.1666667 2.47222222,74.1666667 C3.83750694,74.1666667 4.94444444,75.2736042 4.94444444,76.6388889" id="Fill-49"></path>
                            <path d="M29.6666667,76.6388889 C29.6666667,78.0041736 28.5597292,79.1111111 27.1944444,79.1111111 C25.8291597,79.1111111 24.7222222,78.0041736 24.7222222,76.6388889 C24.7222222,75.2736042 25.8291597,74.1666667 27.1944444,74.1666667 C28.5597292,74.1666667 29.6666667,75.2736042 29.6666667,76.6388889" id="Fill-51"></path>
                            <path d="M54.3888889,76.6388889 C54.3888889,78.0041736 53.2819514,79.1111111 51.9166667,79.1111111 C50.5513819,79.1111111 49.4444444,78.0041736 49.4444444,76.6388889 C49.4444444,75.2736042 50.5513819,74.1666667 51.9166667,74.1666667 C53.2819514,74.1666667 54.3888889,75.2736042 54.3888889,76.6388889" id="Fill-53"></path>
                            <path d="M79.1111111,76.6388889 C79.1111111,78.0041736 78.0041736,79.1111111 76.6388889,79.1111111 C75.2736042,79.1111111 74.1666667,78.0041736 74.1666667,76.6388889 C74.1666667,75.2736042 75.2736042,74.1666667 76.6388889,74.1666667 C78.0041736,74.1666667 79.1111111,75.2736042 79.1111111,76.6388889" id="Fill-55"></path>
                            <path d="M103.833333,76.6388889 C103.833333,78.0041736 102.726396,79.1111111 101.361111,79.1111111 C99.9958264,79.1111111 98.8888889,78.0041736 98.8888889,76.6388889 C98.8888889,75.2736042 99.9958264,74.1666667 101.361111,74.1666667 C102.726396,74.1666667 103.833333,75.2736042 103.833333,76.6388889" id="Fill-57"></path>
                            <path d="M128.555556,76.6388889 C128.555556,78.0041736 127.448618,79.1111111 126.083333,79.1111111 C124.718049,79.1111111 123.611111,78.0041736 123.611111,76.6388889 C123.611111,75.2736042 124.718049,74.1666667 126.083333,74.1666667 C127.448618,74.1666667 128.555556,75.2736042 128.555556,76.6388889" id="Fill-59"></path>
                            <path d="M153.277778,76.6388889 C153.277778,78.0041736 152.17084,79.1111111 150.805556,79.1111111 C149.440271,79.1111111 148.333333,78.0041736 148.333333,76.6388889 C148.333333,75.2736042 149.440271,74.1666667 150.805556,74.1666667 C152.17084,74.1666667 153.277778,75.2736042 153.277778,76.6388889" id="Fill-61"></path>
                            <path d="M178,76.6388889 C178,78.0041736 176.893063,79.1111111 175.527778,79.1111111 C174.162493,79.1111111 173.055556,78.0041736 173.055556,76.6388889 C173.055556,75.2736042 174.162493,74.1666667 175.527778,74.1666667 C176.893063,74.1666667 178,75.2736042 178,76.6388889" id="Fill-63"></path>
                            <path d="M4.94444444,101.361111 C4.94444444,102.726396 3.83750694,103.833333 2.47222222,103.833333 C1.1069375,103.833333 0,102.726396 0,101.361111 C0,99.9958264 1.1069375,98.8888889 2.47222222,98.8888889 C3.83750694,98.8888889 4.94444444,99.9958264 4.94444444,101.361111" id="Fill-65"></path>
                            <path d="M29.6666667,101.361111 C29.6666667,102.726396 28.5597292,103.833333 27.1944444,103.833333 C25.8291597,103.833333 24.7222222,102.726396 24.7222222,101.361111 C24.7222222,99.9958264 25.8291597,98.8888889 27.1944444,98.8888889 C28.5597292,98.8888889 29.6666667,99.9958264 29.6666667,101.361111" id="Fill-67"></path>
                            <path d="M54.3888889,101.361111 C54.3888889,102.726396 53.2819514,103.833333 51.9166667,103.833333 C50.5513819,103.833333 49.4444444,102.726396 49.4444444,101.361111 C49.4444444,99.9958264 50.5513819,98.8888889 51.9166667,98.8888889 C53.2819514,98.8888889 54.3888889,99.9958264 54.3888889,101.361111" id="Fill-69"></path>
                            <path d="M79.1111111,101.361111 C79.1111111,102.726396 78.0041736,103.833333 76.6388889,103.833333 C75.2736042,103.833333 74.1666667,102.726396 74.1666667,101.361111 C74.1666667,99.9958264 75.2736042,98.8888889 76.6388889,98.8888889 C78.0041736,98.8888889 79.1111111,99.9958264 79.1111111,101.361111" id="Fill-71"></path>
                            <path d="M103.833333,101.361111 C103.833333,102.726396 102.726396,103.833333 101.361111,103.833333 C99.9958264,103.833333 98.8888889,102.726396 98.8888889,101.361111 C98.8888889,99.9958264 99.9958264,98.8888889 101.361111,98.8888889 C102.726396,98.8888889 103.833333,99.9958264 103.833333,101.361111" id="Fill-73"></path>
                            <path d="M128.555556,101.361111 C128.555556,102.726396 127.448618,103.833333 126.083333,103.833333 C124.718049,103.833333 123.611111,102.726396 123.611111,101.361111 C123.611111,99.9958264 124.718049,98.8888889 126.083333,98.8888889 C127.448618,98.8888889 128.555556,99.9958264 128.555556,101.361111" id="Fill-75"></path>
                            <path d="M153.277778,101.361111 C153.277778,102.726396 152.17084,103.833333 150.805556,103.833333 C149.440271,103.833333 148.333333,102.726396 148.333333,101.361111 C148.333333,99.9958264 149.440271,98.8888889 150.805556,98.8888889 C152.17084,98.8888889 153.277778,99.9958264 153.277778,101.361111" id="Fill-77"></path>
                            <path d="M178,101.361111 C178,102.726396 176.893063,103.833333 175.527778,103.833333 C174.162493,103.833333 173.055556,102.726396 173.055556,101.361111 C173.055556,99.9958264 174.162493,98.8888889 175.527778,98.8888889 C176.893063,98.8888889 178,99.9958264 178,101.361111" id="Fill-79"></path>
                            <path d="M4.94444444,126.083333 C4.94444444,127.448618 3.83750694,128.555556 2.47222222,128.555556 C1.1069375,128.555556 0,127.448618 0,126.083333 C0,124.718049 1.1069375,123.611111 2.47222222,123.611111 C3.83750694,123.611111 4.94444444,124.718049 4.94444444,126.083333" id="Fill-81"></path>
                            <path d="M29.6666667,126.083333 C29.6666667,127.448618 28.5597292,128.555556 27.1944444,128.555556 C25.8291597,128.555556 24.7222222,127.448618 24.7222222,126.083333 C24.7222222,124.718049 25.8291597,123.611111 27.1944444,123.611111 C28.5597292,123.611111 29.6666667,124.718049 29.6666667,126.083333" id="Fill-83"></path>
                            <path d="M54.3888889,126.083333 C54.3888889,127.448618 53.2819514,128.555556 51.9166667,128.555556 C50.5513819,128.555556 49.4444444,127.448618 49.4444444,126.083333 C49.4444444,124.718049 50.5513819,123.611111 51.9166667,123.611111 C53.2819514,123.611111 54.3888889,124.718049 54.3888889,126.083333" id="Fill-85"></path>
                            <path d="M79.1111111,126.083333 C79.1111111,127.448618 78.0041736,128.555556 76.6388889,128.555556 C75.2736042,128.555556 74.1666667,127.448618 74.1666667,126.083333 C74.1666667,124.718049 75.2736042,123.611111 76.6388889,123.611111 C78.0041736,123.611111 79.1111111,124.718049 79.1111111,126.083333" id="Fill-87"></path>
                            <path d="M103.833333,126.083333 C103.833333,127.448618 102.726396,128.555556 101.361111,128.555556 C99.9958264,128.555556 98.8888889,127.448618 98.8888889,126.083333 C98.8888889,124.718049 99.9958264,123.611111 101.361111,123.611111 C102.726396,123.611111 103.833333,124.718049 103.833333,126.083333" id="Fill-89"></path>
                            <path d="M128.555556,126.083333 C128.555556,127.448618 127.448618,128.555556 126.083333,128.555556 C124.718049,128.555556 123.611111,127.448618 123.611111,126.083333 C123.611111,124.718049 124.718049,123.611111 126.083333,123.611111 C127.448618,123.611111 128.555556,124.718049 128.555556,126.083333" id="Fill-91"></path>
                            <path d="M153.277778,126.083333 C153.277778,127.448618 152.17084,128.555556 150.805556,128.555556 C149.440271,128.555556 148.333333,127.448618 148.333333,126.083333 C148.333333,124.718049 149.440271,123.611111 150.805556,123.611111 C152.17084,123.611111 153.277778,124.718049 153.277778,126.083333" id="Fill-93"></path>
                            <path d="M178,126.083333 C178,127.448618 176.893063,128.555556 175.527778,128.555556 C174.162493,128.555556 173.055556,127.448618 173.055556,126.083333 C173.055556,124.718049 174.162493,123.611111 175.527778,123.611111 C176.893063,123.611111 178,124.718049 178,126.083333" id="Fill-95"></path>
                            <path d="M4.94444444,150.805556 C4.94444444,152.17084 3.83750694,153.277778 2.47222222,153.277778 C1.1069375,153.277778 0,152.17084 0,150.805556 C0,149.440271 1.1069375,148.333333 2.47222222,148.333333 C3.83750694,148.333333 4.94444444,149.440271 4.94444444,150.805556" id="Fill-97"></path>
                            <path d="M29.6666667,150.805556 C29.6666667,152.17084 28.5597292,153.277778 27.1944444,153.277778 C25.8291597,153.277778 24.7222222,152.17084 24.7222222,150.805556 C24.7222222,149.440271 25.8291597,148.333333 27.1944444,148.333333 C28.5597292,148.333333 29.6666667,149.440271 29.6666667,150.805556" id="Fill-99"></path>
                            <path d="M54.3888889,150.805556 C54.3888889,152.17084 53.2819514,153.277778 51.9166667,153.277778 C50.5513819,153.277778 49.4444444,152.17084 49.4444444,150.805556 C49.4444444,149.440271 50.5513819,148.333333 51.9166667,148.333333 C53.2819514,148.333333 54.3888889,149.440271 54.3888889,150.805556" id="Fill-101"></path>
                            <path d="M79.1111111,150.805556 C79.1111111,152.17084 78.0041736,153.277778 76.6388889,153.277778 C75.2736042,153.277778 74.1666667,152.17084 74.1666667,150.805556 C74.1666667,149.440271 75.2736042,148.333333 76.6388889,148.333333 C78.0041736,148.333333 79.1111111,149.440271 79.1111111,150.805556" id="Fill-103"></path>
                            <path d="M103.833333,150.805556 C103.833333,152.17084 102.726396,153.277778 101.361111,153.277778 C99.9958264,153.277778 98.8888889,152.17084 98.8888889,150.805556 C98.8888889,149.440271 99.9958264,148.333333 101.361111,148.333333 C102.726396,148.333333 103.833333,149.440271 103.833333,150.805556" id="Fill-105"></path>
                            <path d="M128.555556,150.805556 C128.555556,152.17084 127.448618,153.277778 126.083333,153.277778 C124.718049,153.277778 123.611111,152.17084 123.611111,150.805556 C123.611111,149.440271 124.718049,148.333333 126.083333,148.333333 C127.448618,148.333333 128.555556,149.440271 128.555556,150.805556" id="Fill-107"></path>
                            <path d="M153.277778,150.805556 C153.277778,152.17084 152.17084,153.277778 150.805556,153.277778 C149.440271,153.277778 148.333333,152.17084 148.333333,150.805556 C148.333333,149.440271 149.440271,148.333333 150.805556,148.333333 C152.17084,148.333333 153.277778,149.440271 153.277778,150.805556" id="Fill-109"></path>
                            <path d="M178,150.805556 C178,152.17084 176.893063,153.277778 175.527778,153.277778 C174.162493,153.277778 173.055556,152.17084 173.055556,150.805556 C173.055556,149.440271 174.162493,148.333333 175.527778,148.333333 C176.893063,148.333333 178,149.440271 178,150.805556" id="Fill-111"></path>
                            <path d="M4.94444444,175.527778 C4.94444444,176.893063 3.83750694,178 2.47222222,178 C1.1069375,178 0,176.893063 0,175.527778 C0,174.162493 1.1069375,173.055556 2.47222222,173.055556 C3.83750694,173.055556 4.94444444,174.162493 4.94444444,175.527778" id="Fill-113"></path>
                            <path d="M29.6666667,175.527778 C29.6666667,176.893063 28.5597292,178 27.1944444,178 C25.8291597,178 24.7222222,176.893063 24.7222222,175.527778 C24.7222222,174.162493 25.8291597,173.055556 27.1944444,173.055556 C28.5597292,173.055556 29.6666667,174.162493 29.6666667,175.527778" id="Fill-115"></path>
                            <path d="M54.3888889,175.527778 C54.3888889,176.893063 53.2819514,178 51.9166667,178 C50.5513819,178 49.4444444,176.893063 49.4444444,175.527778 C49.4444444,174.162493 50.5513819,173.055556 51.9166667,173.055556 C53.2819514,173.055556 54.3888889,174.162493 54.3888889,175.527778" id="Fill-117"></path>
                            <path d="M79.1111111,175.527778 C79.1111111,176.893063 78.0041736,178 76.6388889,178 C75.2736042,178 74.1666667,176.893063 74.1666667,175.527778 C74.1666667,174.162493 75.2736042,173.055556 76.6388889,173.055556 C78.0041736,173.055556 79.1111111,174.162493 79.1111111,175.527778" id="Fill-119"></path>
                            <path d="M103.833333,175.527778 C103.833333,176.893063 102.726396,178 101.361111,178 C99.9958264,178 98.8888889,176.893063 98.8888889,175.527778 C98.8888889,174.162493 99.9958264,173.055556 101.361111,173.055556 C102.726396,173.055556 103.833333,174.162493 103.833333,175.527778" id="Fill-121"></path>
                            <path d="M128.555556,175.527778 C128.555556,176.893063 127.448618,178 126.083333,178 C124.718049,178 123.611111,176.893063 123.611111,175.527778 C123.611111,174.162493 124.718049,173.055556 126.083333,173.055556 C127.448618,173.055556 128.555556,174.162493 128.555556,175.527778" id="Fill-123"></path>
                            <path d="M153.277778,175.527778 C153.277778,176.893063 152.17084,178 150.805556,178 C149.440271,178 148.333333,176.893063 148.333333,175.527778 C148.333333,174.162493 149.440271,173.055556 150.805556,173.055556 C152.17084,173.055556 153.277778,174.162493 153.277778,175.527778" id="Fill-125"></path>
                            <path d="M178,175.527778 C178,176.893063 176.893063,178 175.527778,178 C174.162493,178 173.055556,176.893063 173.055556,175.527778 C173.055556,174.162493 174.162493,173.055556 175.527778,173.055556 C176.893063,173.055556 178,174.162493 178,175.527778" id="Fill-127"></path>
                        </g>
                    </g>
                    <g id="Oval">
                        <use fill="black" fill-opacity="1" filter="url(#filter-2)" xlink:href="#path-1"></use>
                        <use stroke="#3B43F2" stroke-width="4" xlink:href="#path-1"></use>
                    </g>
                    <rect id="Rectangle-3" stroke="#3B43F2" stroke-width="4" transform="translate(622.000000, 204.000000) rotate(-315.000000) translate(-622.000000, -204.000000) " x="612" y="194" width="20" height="20"></rect>
                    <path d="M581,97.1421356 C585.411,97.1421356 589,100.731136 589,105.142136 L593,105.142136 C593,98.5251356 587.617,93.1421356 581,93.1421356 C574.383,93.1421356 569,98.5251356 569,105.142136 L573,105.142136 C573,100.731136 576.589,97.1421356 581,97.1421356" id="Fill-03" fill="#3B43F2"></path>
                    <path d="M702,0 C695.383,0 690,5.383 690,12 L694,12 C694,7.589 697.589,4 702,4 L702,0 Z" id="Fill-2" fill="#3B43F2"></path>
                </g>
            </g>
        </g>
    </g>
</svg>
