<?xml version="1.0" encoding="UTF-8"?>
<svg width="381px" height="778px" viewBox="0 0 381 778" version="1.1" xmlns="http://www.w3.org/2000/svg" xmlns:xlink="http://www.w3.org/1999/xlink">
    <title>Group</title>
    <g id="Main-Files" stroke="none" stroke-width="1" fill="none" fill-rule="evenodd">
        <g id="02_Index_Portfolio" transform="translate(0.000000, -4283.000000)">
            <g id="04_Testimonials-&amp;-Clients" transform="translate(-146.000000, 3701.000000)">
                <g id="Background" transform="translate(0.000000, 582.000000)">
                    <g id="Group">
                        <circle id="Oval" fill="#3B43F2" cx="263.5" cy="263.5" r="263.5"></circle>
                        <rect id="Rectangle-1" stroke="#3B43F2" stroke-width="4" transform="translate(296.945310, 761.000000) rotate(-315.000000) translate(-296.945310, -761.000000) " x="286.94531" y="751" width="20" height="20"></rect>
                        <path d="M255.94531,654.142136 C260.35631,654.142136 263.94531,657.731136 263.94531,662.142136 L267.94531,662.142136 C267.94531,655.525136 262.56231,650.142136 255.94531,650.142136 C249.32831,650.142136 243.94531,655.525136 243.94531,662.142136 L247.94531,662.142136 C247.94531,657.731136 251.53431,654.142136 255.94531,654.142136" id="Fill-1" fill="#3B43F2"></path>
                        <g id="Ornament/Dotted/white" transform="translate(220.000000, 63.000000)" fill="#FFFFFF">
                            <g>
                                <path d="M6.61111111,3.30555556 C6.61111111,5.13104861 5.13104861,6.61111111 3.30555556,6.61111111 C1.4800625,6.61111111 0,5.13104861 0,3.30555556 C0,1.4800625 1.4800625,0 3.30555556,0 C5.13104861,0 6.61111111,1.4800625 6.61111111,3.30555556" id="Fill-1"></path>
                                <path d="M39.6666667,3.30555556 C39.6666667,5.13104861 38.1866042,6.61111111 36.3611111,6.61111111 C34.5356181,6.61111111 33.0555556,5.13104861 33.0555556,3.30555556 C33.0555556,1.4800625 34.5356181,0 36.3611111,0 C38.1866042,0 39.6666667,1.4800625 39.6666667,3.30555556" id="Fill-3"></path>
                                <path d="M72.7222222,3.30555556 C72.7222222,5.13104861 71.2421597,6.61111111 69.4166667,6.61111111 C67.5911736,6.61111111 66.1111111,5.13104861 66.1111111,3.30555556 C66.1111111,1.4800625 67.5911736,0 69.4166667,0 C71.2421597,0 72.7222222,1.4800625 72.7222222,3.30555556" id="Fill-5"></path>
                                <path d="M105.777778,3.30555556 C105.777778,5.13104861 104.297715,6.61111111 102.472222,6.61111111 C100.646729,6.61111111 99.1666667,5.13104861 99.1666667,3.30555556 C99.1666667,1.4800625 100.646729,0 102.472222,0 C104.297715,0 105.777778,1.4800625 105.777778,3.30555556" id="Fill-7"></path>
                                <path d="M138.833333,3.30555556 C138.833333,5.13104861 137.353271,6.61111111 135.527778,6.61111111 C133.702285,6.61111111 132.222222,5.13104861 132.222222,3.30555556 C132.222222,1.4800625 133.702285,0 135.527778,0 C137.353271,0 138.833333,1.4800625 138.833333,3.30555556" id="Fill-9"></path>
                                <path d="M171.888889,3.30555556 C171.888889,5.13104861 170.408826,6.61111111 168.583333,6.61111111 C166.75784,6.61111111 165.277778,5.13104861 165.277778,3.30555556 C165.277778,1.4800625 166.75784,0 168.583333,0 C170.408826,0 171.888889,1.4800625 171.888889,3.30555556" id="Fill-11"></path>
                                <path d="M204.944444,3.30555556 C204.944444,5.13104861 203.464382,6.61111111 201.638889,6.61111111 C199.813396,6.61111111 198.333333,5.13104861 198.333333,3.30555556 C198.333333,1.4800625 199.813396,0 201.638889,0 C203.464382,0 204.944444,1.4800625 204.944444,3.30555556" id="Fill-13"></path>
                                <path d="M238,3.30555556 C238,5.13104861 236.519937,6.61111111 234.694444,6.61111111 C232.868951,6.61111111 231.388889,5.13104861 231.388889,3.30555556 C231.388889,1.4800625 232.868951,0 234.694444,0 C236.519937,0 238,1.4800625 238,3.30555556" id="Fill-15"></path>
                                <path d="M6.61111111,36.3611111 C6.61111111,38.1866042 5.13104861,39.6666667 3.30555556,39.6666667 C1.4800625,39.6666667 0,38.1866042 0,36.3611111 C0,34.5356181 1.4800625,33.0555556 3.30555556,33.0555556 C5.13104861,33.0555556 6.61111111,34.5356181 6.61111111,36.3611111" id="Fill-17"></path>
                                <path d="M39.6666667,36.3611111 C39.6666667,38.1866042 38.1866042,39.6666667 36.3611111,39.6666667 C34.5356181,39.6666667 33.0555556,38.1866042 33.0555556,36.3611111 C33.0555556,34.5356181 34.5356181,33.0555556 36.3611111,33.0555556 C38.1866042,33.0555556 39.6666667,34.5356181 39.6666667,36.3611111" id="Fill-19"></path>
                                <path d="M72.7222222,36.3611111 C72.7222222,38.1866042 71.2421597,39.6666667 69.4166667,39.6666667 C67.5911736,39.6666667 66.1111111,38.1866042 66.1111111,36.3611111 C66.1111111,34.5356181 67.5911736,33.0555556 69.4166667,33.0555556 C71.2421597,33.0555556 72.7222222,34.5356181 72.7222222,36.3611111" id="Fill-21"></path>
                                <path d="M105.777778,36.3611111 C105.777778,38.1866042 104.297715,39.6666667 102.472222,39.6666667 C100.646729,39.6666667 99.1666667,38.1866042 99.1666667,36.3611111 C99.1666667,34.5356181 100.646729,33.0555556 102.472222,33.0555556 C104.297715,33.0555556 105.777778,34.5356181 105.777778,36.3611111" id="Fill-23"></path>
                                <path d="M138.833333,36.3611111 C138.833333,38.1866042 137.353271,39.6666667 135.527778,39.6666667 C133.702285,39.6666667 132.222222,38.1866042 132.222222,36.3611111 C132.222222,34.5356181 133.702285,33.0555556 135.527778,33.0555556 C137.353271,33.0555556 138.833333,34.5356181 138.833333,36.3611111" id="Fill-25"></path>
                                <path d="M171.888889,36.3611111 C171.888889,38.1866042 170.408826,39.6666667 168.583333,39.6666667 C166.75784,39.6666667 165.277778,38.1866042 165.277778,36.3611111 C165.277778,34.5356181 166.75784,33.0555556 168.583333,33.0555556 C170.408826,33.0555556 171.888889,34.5356181 171.888889,36.3611111" id="Fill-27"></path>
                                <path d="M204.944444,36.3611111 C204.944444,38.1866042 203.464382,39.6666667 201.638889,39.6666667 C199.813396,39.6666667 198.333333,38.1866042 198.333333,36.3611111 C198.333333,34.5356181 199.813396,33.0555556 201.638889,33.0555556 C203.464382,33.0555556 204.944444,34.5356181 204.944444,36.3611111" id="Fill-29"></path>
                                <path d="M238,36.3611111 C238,38.1866042 236.519937,39.6666667 234.694444,39.6666667 C232.868951,39.6666667 231.388889,38.1866042 231.388889,36.3611111 C231.388889,34.5356181 232.868951,33.0555556 234.694444,33.0555556 C236.519937,33.0555556 238,34.5356181 238,36.3611111" id="Fill-31"></path>
                                <path d="M6.61111111,69.4166667 C6.61111111,71.2421597 5.13104861,72.7222222 3.30555556,72.7222222 C1.4800625,72.7222222 0,71.2421597 0,69.4166667 C0,67.5911736 1.4800625,66.1111111 3.30555556,66.1111111 C5.13104861,66.1111111 6.61111111,67.5911736 6.61111111,69.4166667" id="Fill-33"></path>
                                <path d="M39.6666667,69.4166667 C39.6666667,71.2421597 38.1866042,72.7222222 36.3611111,72.7222222 C34.5356181,72.7222222 33.0555556,71.2421597 33.0555556,69.4166667 C33.0555556,67.5911736 34.5356181,66.1111111 36.3611111,66.1111111 C38.1866042,66.1111111 39.6666667,67.5911736 39.6666667,69.4166667" id="Fill-35"></path>
                                <path d="M72.7222222,69.4166667 C72.7222222,71.2421597 71.2421597,72.7222222 69.4166667,72.7222222 C67.5911736,72.7222222 66.1111111,71.2421597 66.1111111,69.4166667 C66.1111111,67.5911736 67.5911736,66.1111111 69.4166667,66.1111111 C71.2421597,66.1111111 72.7222222,67.5911736 72.7222222,69.4166667" id="Fill-37"></path>
                                <path d="M105.777778,69.4166667 C105.777778,71.2421597 104.297715,72.7222222 102.472222,72.7222222 C100.646729,72.7222222 99.1666667,71.2421597 99.1666667,69.4166667 C99.1666667,67.5911736 100.646729,66.1111111 102.472222,66.1111111 C104.297715,66.1111111 105.777778,67.5911736 105.777778,69.4166667" id="Fill-39"></path>
                                <path d="M138.833333,69.4166667 C138.833333,71.2421597 137.353271,72.7222222 135.527778,72.7222222 C133.702285,72.7222222 132.222222,71.2421597 132.222222,69.4166667 C132.222222,67.5911736 133.702285,66.1111111 135.527778,66.1111111 C137.353271,66.1111111 138.833333,67.5911736 138.833333,69.4166667" id="Fill-41"></path>
                                <path d="M171.888889,69.4166667 C171.888889,71.2421597 170.408826,72.7222222 168.583333,72.7222222 C166.75784,72.7222222 165.277778,71.2421597 165.277778,69.4166667 C165.277778,67.5911736 166.75784,66.1111111 168.583333,66.1111111 C170.408826,66.1111111 171.888889,67.5911736 171.888889,69.4166667" id="Fill-43"></path>
                                <path d="M204.944444,69.4166667 C204.944444,71.2421597 203.464382,72.7222222 201.638889,72.7222222 C199.813396,72.7222222 198.333333,71.2421597 198.333333,69.4166667 C198.333333,67.5911736 199.813396,66.1111111 201.638889,66.1111111 C203.464382,66.1111111 204.944444,67.5911736 204.944444,69.4166667" id="Fill-45"></path>
                                <path d="M238,69.4166667 C238,71.2421597 236.519937,72.7222222 234.694444,72.7222222 C232.868951,72.7222222 231.388889,71.2421597 231.388889,69.4166667 C231.388889,67.5911736 232.868951,66.1111111 234.694444,66.1111111 C236.519937,66.1111111 238,67.5911736 238,69.4166667" id="Fill-47"></path>
                                <path d="M6.61111111,102.472222 C6.61111111,104.297715 5.13104861,105.777778 3.30555556,105.777778 C1.4800625,105.777778 0,104.297715 0,102.472222 C0,100.646729 1.4800625,99.1666667 3.30555556,99.1666667 C5.13104861,99.1666667 6.61111111,100.646729 6.61111111,102.472222" id="Fill-49"></path>
                                <path d="M39.6666667,102.472222 C39.6666667,104.297715 38.1866042,105.777778 36.3611111,105.777778 C34.5356181,105.777778 33.0555556,104.297715 33.0555556,102.472222 C33.0555556,100.646729 34.5356181,99.1666667 36.3611111,99.1666667 C38.1866042,99.1666667 39.6666667,100.646729 39.6666667,102.472222" id="Fill-51"></path>
                                <path d="M72.7222222,102.472222 C72.7222222,104.297715 71.2421597,105.777778 69.4166667,105.777778 C67.5911736,105.777778 66.1111111,104.297715 66.1111111,102.472222 C66.1111111,100.646729 67.5911736,99.1666667 69.4166667,99.1666667 C71.2421597,99.1666667 72.7222222,100.646729 72.7222222,102.472222" id="Fill-53"></path>
                                <path d="M105.777778,102.472222 C105.777778,104.297715 104.297715,105.777778 102.472222,105.777778 C100.646729,105.777778 99.1666667,104.297715 99.1666667,102.472222 C99.1666667,100.646729 100.646729,99.1666667 102.472222,99.1666667 C104.297715,99.1666667 105.777778,100.646729 105.777778,102.472222" id="Fill-55"></path>
                                <path d="M138.833333,102.472222 C138.833333,104.297715 137.353271,105.777778 135.527778,105.777778 C133.702285,105.777778 132.222222,104.297715 132.222222,102.472222 C132.222222,100.646729 133.702285,99.1666667 135.527778,99.1666667 C137.353271,99.1666667 138.833333,100.646729 138.833333,102.472222" id="Fill-57"></path>
                                <path d="M171.888889,102.472222 C171.888889,104.297715 170.408826,105.777778 168.583333,105.777778 C166.75784,105.777778 165.277778,104.297715 165.277778,102.472222 C165.277778,100.646729 166.75784,99.1666667 168.583333,99.1666667 C170.408826,99.1666667 171.888889,100.646729 171.888889,102.472222" id="Fill-59"></path>
                                <path d="M204.944444,102.472222 C204.944444,104.297715 203.464382,105.777778 201.638889,105.777778 C199.813396,105.777778 198.333333,104.297715 198.333333,102.472222 C198.333333,100.646729 199.813396,99.1666667 201.638889,99.1666667 C203.464382,99.1666667 204.944444,100.646729 204.944444,102.472222" id="Fill-61"></path>
                                <path d="M238,102.472222 C238,104.297715 236.519937,105.777778 234.694444,105.777778 C232.868951,105.777778 231.388889,104.297715 231.388889,102.472222 C231.388889,100.646729 232.868951,99.1666667 234.694444,99.1666667 C236.519937,99.1666667 238,100.646729 238,102.472222" id="Fill-63"></path>
                                <path d="M6.61111111,135.527778 C6.61111111,137.353271 5.13104861,138.833333 3.30555556,138.833333 C1.4800625,138.833333 0,137.353271 0,135.527778 C0,133.702285 1.4800625,132.222222 3.30555556,132.222222 C5.13104861,132.222222 6.61111111,133.702285 6.61111111,135.527778" id="Fill-65"></path>
                                <path d="M39.6666667,135.527778 C39.6666667,137.353271 38.1866042,138.833333 36.3611111,138.833333 C34.5356181,138.833333 33.0555556,137.353271 33.0555556,135.527778 C33.0555556,133.702285 34.5356181,132.222222 36.3611111,132.222222 C38.1866042,132.222222 39.6666667,133.702285 39.6666667,135.527778" id="Fill-67"></path>
                                <path d="M72.7222222,135.527778 C72.7222222,137.353271 71.2421597,138.833333 69.4166667,138.833333 C67.5911736,138.833333 66.1111111,137.353271 66.1111111,135.527778 C66.1111111,133.702285 67.5911736,132.222222 69.4166667,132.222222 C71.2421597,132.222222 72.7222222,133.702285 72.7222222,135.527778" id="Fill-69"></path>
                                <path d="M105.777778,135.527778 C105.777778,137.353271 104.297715,138.833333 102.472222,138.833333 C100.646729,138.833333 99.1666667,137.353271 99.1666667,135.527778 C99.1666667,133.702285 100.646729,132.222222 102.472222,132.222222 C104.297715,132.222222 105.777778,133.702285 105.777778,135.527778" id="Fill-71"></path>
                                <path d="M138.833333,135.527778 C138.833333,137.353271 137.353271,138.833333 135.527778,138.833333 C133.702285,138.833333 132.222222,137.353271 132.222222,135.527778 C132.222222,133.702285 133.702285,132.222222 135.527778,132.222222 C137.353271,132.222222 138.833333,133.702285 138.833333,135.527778" id="Fill-73"></path>
                                <path d="M171.888889,135.527778 C171.888889,137.353271 170.408826,138.833333 168.583333,138.833333 C166.75784,138.833333 165.277778,137.353271 165.277778,135.527778 C165.277778,133.702285 166.75784,132.222222 168.583333,132.222222 C170.408826,132.222222 171.888889,133.702285 171.888889,135.527778" id="Fill-75"></path>
                                <path d="M204.944444,135.527778 C204.944444,137.353271 203.464382,138.833333 201.638889,138.833333 C199.813396,138.833333 198.333333,137.353271 198.333333,135.527778 C198.333333,133.702285 199.813396,132.222222 201.638889,132.222222 C203.464382,132.222222 204.944444,133.702285 204.944444,135.527778" id="Fill-77"></path>
                                <path d="M238,135.527778 C238,137.353271 236.519937,138.833333 234.694444,138.833333 C232.868951,138.833333 231.388889,137.353271 231.388889,135.527778 C231.388889,133.702285 232.868951,132.222222 234.694444,132.222222 C236.519937,132.222222 238,133.702285 238,135.527778" id="Fill-79"></path>
                                <path d="M6.61111111,168.583333 C6.61111111,170.408826 5.13104861,171.888889 3.30555556,171.888889 C1.4800625,171.888889 0,170.408826 0,168.583333 C0,166.75784 1.4800625,165.277778 3.30555556,165.277778 C5.13104861,165.277778 6.61111111,166.75784 6.61111111,168.583333" id="Fill-81"></path>
                                <path d="M39.6666667,168.583333 C39.6666667,170.408826 38.1866042,171.888889 36.3611111,171.888889 C34.5356181,171.888889 33.0555556,170.408826 33.0555556,168.583333 C33.0555556,166.75784 34.5356181,165.277778 36.3611111,165.277778 C38.1866042,165.277778 39.6666667,166.75784 39.6666667,168.583333" id="Fill-83"></path>
                                <path d="M72.7222222,168.583333 C72.7222222,170.408826 71.2421597,171.888889 69.4166667,171.888889 C67.5911736,171.888889 66.1111111,170.408826 66.1111111,168.583333 C66.1111111,166.75784 67.5911736,165.277778 69.4166667,165.277778 C71.2421597,165.277778 72.7222222,166.75784 72.7222222,168.583333" id="Fill-85"></path>
                                <path d="M105.777778,168.583333 C105.777778,170.408826 104.297715,171.888889 102.472222,171.888889 C100.646729,171.888889 99.1666667,170.408826 99.1666667,168.583333 C99.1666667,166.75784 100.646729,165.277778 102.472222,165.277778 C104.297715,165.277778 105.777778,166.75784 105.777778,168.583333" id="Fill-87"></path>
                                <path d="M138.833333,168.583333 C138.833333,170.408826 137.353271,171.888889 135.527778,171.888889 C133.702285,171.888889 132.222222,170.408826 132.222222,168.583333 C132.222222,166.75784 133.702285,165.277778 135.527778,165.277778 C137.353271,165.277778 138.833333,166.75784 138.833333,168.583333" id="Fill-89"></path>
                                <path d="M171.888889,168.583333 C171.888889,170.408826 170.408826,171.888889 168.583333,171.888889 C166.75784,171.888889 165.277778,170.408826 165.277778,168.583333 C165.277778,166.75784 166.75784,165.277778 168.583333,165.277778 C170.408826,165.277778 171.888889,166.75784 171.888889,168.583333" id="Fill-91"></path>
                                <path d="M204.944444,168.583333 C204.944444,170.408826 203.464382,171.888889 201.638889,171.888889 C199.813396,171.888889 198.333333,170.408826 198.333333,168.583333 C198.333333,166.75784 199.813396,165.277778 201.638889,165.277778 C203.464382,165.277778 204.944444,166.75784 204.944444,168.583333" id="Fill-93"></path>
                                <path d="M238,168.583333 C238,170.408826 236.519937,171.888889 234.694444,171.888889 C232.868951,171.888889 231.388889,170.408826 231.388889,168.583333 C231.388889,166.75784 232.868951,165.277778 234.694444,165.277778 C236.519937,165.277778 238,166.75784 238,168.583333" id="Fill-95"></path>
                                <path d="M6.61111111,201.638889 C6.61111111,203.464382 5.13104861,204.944444 3.30555556,204.944444 C1.4800625,204.944444 0,203.464382 0,201.638889 C0,199.813396 1.4800625,198.333333 3.30555556,198.333333 C5.13104861,198.333333 6.61111111,199.813396 6.61111111,201.638889" id="Fill-97"></path>
                                <path d="M39.6666667,201.638889 C39.6666667,203.464382 38.1866042,204.944444 36.3611111,204.944444 C34.5356181,204.944444 33.0555556,203.464382 33.0555556,201.638889 C33.0555556,199.813396 34.5356181,198.333333 36.3611111,198.333333 C38.1866042,198.333333 39.6666667,199.813396 39.6666667,201.638889" id="Fill-99"></path>
                                <path d="M72.7222222,201.638889 C72.7222222,203.464382 71.2421597,204.944444 69.4166667,204.944444 C67.5911736,204.944444 66.1111111,203.464382 66.1111111,201.638889 C66.1111111,199.813396 67.5911736,198.333333 69.4166667,198.333333 C71.2421597,198.333333 72.7222222,199.813396 72.7222222,201.638889" id="Fill-101"></path>
                                <path d="M105.777778,201.638889 C105.777778,203.464382 104.297715,204.944444 102.472222,204.944444 C100.646729,204.944444 99.1666667,203.464382 99.1666667,201.638889 C99.1666667,199.813396 100.646729,198.333333 102.472222,198.333333 C104.297715,198.333333 105.777778,199.813396 105.777778,201.638889" id="Fill-103"></path>
                                <path d="M138.833333,201.638889 C138.833333,203.464382 137.353271,204.944444 135.527778,204.944444 C133.702285,204.944444 132.222222,203.464382 132.222222,201.638889 C132.222222,199.813396 133.702285,198.333333 135.527778,198.333333 C137.353271,198.333333 138.833333,199.813396 138.833333,201.638889" id="Fill-105"></path>
                                <path d="M171.888889,201.638889 C171.888889,203.464382 170.408826,204.944444 168.583333,204.944444 C166.75784,204.944444 165.277778,203.464382 165.277778,201.638889 C165.277778,199.813396 166.75784,198.333333 168.583333,198.333333 C170.408826,198.333333 171.888889,199.813396 171.888889,201.638889" id="Fill-107"></path>
                                <path d="M204.944444,201.638889 C204.944444,203.464382 203.464382,204.944444 201.638889,204.944444 C199.813396,204.944444 198.333333,203.464382 198.333333,201.638889 C198.333333,199.813396 199.813396,198.333333 201.638889,198.333333 C203.464382,198.333333 204.944444,199.813396 204.944444,201.638889" id="Fill-109"></path>
                                <path d="M238,201.638889 C238,203.464382 236.519937,204.944444 234.694444,204.944444 C232.868951,204.944444 231.388889,203.464382 231.388889,201.638889 C231.388889,199.813396 232.868951,198.333333 234.694444,198.333333 C236.519937,198.333333 238,199.813396 238,201.638889" id="Fill-111"></path>
                                <path d="M6.61111111,234.694444 C6.61111111,236.519937 5.13104861,238 3.30555556,238 C1.4800625,238 0,236.519937 0,234.694444 C0,232.868951 1.4800625,231.388889 3.30555556,231.388889 C5.13104861,231.388889 6.61111111,232.868951 6.61111111,234.694444" id="Fill-113"></path>
                                <path d="M39.6666667,234.694444 C39.6666667,236.519937 38.1866042,238 36.3611111,238 C34.5356181,238 33.0555556,236.519937 33.0555556,234.694444 C33.0555556,232.868951 34.5356181,231.388889 36.3611111,231.388889 C38.1866042,231.388889 39.6666667,232.868951 39.6666667,234.694444" id="Fill-115"></path>
                                <path d="M72.7222222,234.694444 C72.7222222,236.519937 71.2421597,238 69.4166667,238 C67.5911736,238 66.1111111,236.519937 66.1111111,234.694444 C66.1111111,232.868951 67.5911736,231.388889 69.4166667,231.388889 C71.2421597,231.388889 72.7222222,232.868951 72.7222222,234.694444" id="Fill-117"></path>
                                <path d="M105.777778,234.694444 C105.777778,236.519937 104.297715,238 102.472222,238 C100.646729,238 99.1666667,236.519937 99.1666667,234.694444 C99.1666667,232.868951 100.646729,231.388889 102.472222,231.388889 C104.297715,231.388889 105.777778,232.868951 105.777778,234.694444" id="Fill-119"></path>
                                <path d="M138.833333,234.694444 C138.833333,236.519937 137.353271,238 135.527778,238 C133.702285,238 132.222222,236.519937 132.222222,234.694444 C132.222222,232.868951 133.702285,231.388889 135.527778,231.388889 C137.353271,231.388889 138.833333,232.868951 138.833333,234.694444" id="Fill-121"></path>
                                <path d="M171.888889,234.694444 C171.888889,236.519937 170.408826,238 168.583333,238 C166.75784,238 165.277778,236.519937 165.277778,234.694444 C165.277778,232.868951 166.75784,231.388889 168.583333,231.388889 C170.408826,231.388889 171.888889,232.868951 171.888889,234.694444" id="Fill-123"></path>
                                <path d="M204.944444,234.694444 C204.944444,236.519937 203.464382,238 201.638889,238 C199.813396,238 198.333333,236.519937 198.333333,234.694444 C198.333333,232.868951 199.813396,231.388889 201.638889,231.388889 C203.464382,231.388889 204.944444,232.868951 204.944444,234.694444" id="Fill-125"></path>
                                <path d="M238,234.694444 C238,236.519937 236.519937,238 234.694444,238 C232.868951,238 231.388889,236.519937 231.388889,234.694444 C231.388889,232.868951 232.868951,231.388889 234.694444,231.388889 C236.519937,231.388889 238,232.868951 238,234.694444" id="Fill-127"></path>
                            </g>
                        </g>
                    </g>
                </g>
            </g>
        </g>
    </g>
</svg>
