<?xml version="1.0" encoding="UTF-8"?>
<svg width="581px" height="761px" viewBox="0 0 581 761" version="1.1" xmlns="http://www.w3.org/2000/svg" xmlns:xlink="http://www.w3.org/1999/xlink">
    <!-- Generator: Sketch 64 (93537) - https://sketch.com -->
    <title>Main Files</title>
    <desc>Created with Sketch.</desc>
    <defs>
        <ellipse id="path-1" cx="1081.0913" cy="826" rx="11.8910134" ry="12"></ellipse>
        <filter x="-428.9%" y="-583.3%" width="1294.2%" height="1283.3%" filterUnits="objectBoundingBox" id="filter-2">
            <feMorphology radius="2" operator="dilate" in="SourceAlpha" result="shadowSpreadOuter1"></feMorphology>
            <feOffset dx="40" dy="2" in="shadowSpreadOuter1" result="shadowOffsetOuter1"></feOffset>
            <feMorphology radius="2" operator="erode" in="SourceAlpha" result="shadowInner"></feMorphology>
            <feOffset dx="40" dy="2" in="shadowInner" result="shadowInner"></feOffset>
            <feComposite in="shadowOffsetOuter1" in2="shadowInner" operator="out" result="shadowOffsetOuter1"></feComposite>
            <feGaussianBlur stdDeviation="40" in="shadowOffsetOuter1" result="shadowBlurOuter1"></feGaussianBlur>
            <feColorMatrix values="0 0 0 0 0   0 0 0 0 0   0 0 0 0 0  0 0 0 0.5 0" type="matrix" in="shadowBlurOuter1"></feColorMatrix>
        </filter>
    </defs>
    <g id="Main-Files" stroke="none" stroke-width="1" fill="none" fill-rule="evenodd">
        <g id="02_Index_Portfolio" transform="translate(-699.000000, 0.000000)">
            <g id="01_Hero" transform="translate(0.000000, -541.000000)">
                <g id="Background">
                    <rect id="Rectangle1" fill="#FFFFFF" x="0" y="616" width="1268.37476" height="725"></rect>
                    <path d="M986.95308,210.043663 L1772.45114,206.460359 C1827.67904,206.208419 1872.65434,250.77524 1872.90628,306.003141 C1872.90766,306.307257 1872.90766,306.611379 1872.90628,306.915496 L1869.32297,1092.41355 C1869.07266,1147.2855 1824.65213,1191.70602 1769.78019,1191.95634 L984.282131,1195.53964 C929.054231,1195.79158 884.078934,1151.22476 883.826994,1095.99686 C883.825606,1095.69274 883.825606,1095.38862 883.826994,1095.0845 L887.410298,309.586445 C887.660614,254.714504 932.081138,210.293979 986.95308,210.043663 Z" id="Rectangle" fill="#3138D1" transform="translate(1378.366635, 701.000000) rotate(-45.000000) translate(-1378.366635, -701.000000) "></path>
                    <g id="Ornament/Dotted/black" transform="translate(964.163002, 1019.000000)" fill="#FFFFFF">
                        <g>
                            <path d="M6.55106756,3.30555556 C6.55106756,5.13104861 5.08444731,6.61111111 3.27553378,6.61111111 C1.46662025,6.61111111 0,5.13104861 0,3.30555556 C0,1.4800625 1.46662025,0 3.27553378,0 C5.08444731,0 6.55106756,1.4800625 6.55106756,3.30555556" id="Fill-1"></path>
                            <path d="M39.3064054,3.30555556 C39.3064054,5.13104861 37.8397851,6.61111111 36.0308716,6.61111111 C34.221958,6.61111111 32.7553378,5.13104861 32.7553378,3.30555556 C32.7553378,1.4800625 34.221958,0 36.0308716,0 C37.8397851,0 39.3064054,1.4800625 39.3064054,3.30555556" id="Fill-3"></path>
                            <path d="M72.0617431,3.30555556 C72.0617431,5.13104861 70.5951229,6.61111111 68.7862094,6.61111111 C66.9772958,6.61111111 65.5106756,5.13104861 65.5106756,3.30555556 C65.5106756,1.4800625 66.9772958,0 68.7862094,0 C70.5951229,0 72.0617431,1.4800625 72.0617431,3.30555556" id="Fill-5"></path>
                            <path d="M104.817081,3.30555556 C104.817081,5.13104861 103.350461,6.61111111 101.541547,6.61111111 C99.7326336,6.61111111 98.2660134,5.13104861 98.2660134,3.30555556 C98.2660134,1.4800625 99.7326336,0 101.541547,0 C103.350461,0 104.817081,1.4800625 104.817081,3.30555556" id="Fill-7"></path>
                            <path d="M137.572419,3.30555556 C137.572419,5.13104861 136.105798,6.61111111 134.296885,6.61111111 C132.487971,6.61111111 131.021351,5.13104861 131.021351,3.30555556 C131.021351,1.4800625 132.487971,0 134.296885,0 C136.105798,0 137.572419,1.4800625 137.572419,3.30555556" id="Fill-9"></path>
                            <path d="M170.327757,3.30555556 C170.327757,5.13104861 168.861136,6.61111111 167.052223,6.61111111 C165.243309,6.61111111 163.776689,5.13104861 163.776689,3.30555556 C163.776689,1.4800625 165.243309,0 167.052223,0 C168.861136,0 170.327757,1.4800625 170.327757,3.30555556" id="Fill-11"></path>
                            <path d="M203.083094,3.30555556 C203.083094,5.13104861 201.616474,6.61111111 199.807561,6.61111111 C197.998647,6.61111111 196.532027,5.13104861 196.532027,3.30555556 C196.532027,1.4800625 197.998647,0 199.807561,0 C201.616474,0 203.083094,1.4800625 203.083094,3.30555556" id="Fill-13"></path>
                            <path d="M235.838432,3.30555556 C235.838432,5.13104861 234.371812,6.61111111 232.562898,6.61111111 C230.753985,6.61111111 229.287365,5.13104861 229.287365,3.30555556 C229.287365,1.4800625 230.753985,0 232.562898,0 C234.371812,0 235.838432,1.4800625 235.838432,3.30555556" id="Fill-15"></path>
                            <path d="M6.55106756,36.3611111 C6.55106756,38.1866042 5.08444731,39.6666667 3.27553378,39.6666667 C1.46662025,39.6666667 0,38.1866042 0,36.3611111 C0,34.5356181 1.46662025,33.0555556 3.27553378,33.0555556 C5.08444731,33.0555556 6.55106756,34.5356181 6.55106756,36.3611111" id="Fill-17"></path>
                            <path d="M39.3064054,36.3611111 C39.3064054,38.1866042 37.8397851,39.6666667 36.0308716,39.6666667 C34.221958,39.6666667 32.7553378,38.1866042 32.7553378,36.3611111 C32.7553378,34.5356181 34.221958,33.0555556 36.0308716,33.0555556 C37.8397851,33.0555556 39.3064054,34.5356181 39.3064054,36.3611111" id="Fill-19"></path>
                            <path d="M72.0617431,36.3611111 C72.0617431,38.1866042 70.5951229,39.6666667 68.7862094,39.6666667 C66.9772958,39.6666667 65.5106756,38.1866042 65.5106756,36.3611111 C65.5106756,34.5356181 66.9772958,33.0555556 68.7862094,33.0555556 C70.5951229,33.0555556 72.0617431,34.5356181 72.0617431,36.3611111" id="Fill-21"></path>
                            <path d="M104.817081,36.3611111 C104.817081,38.1866042 103.350461,39.6666667 101.541547,39.6666667 C99.7326336,39.6666667 98.2660134,38.1866042 98.2660134,36.3611111 C98.2660134,34.5356181 99.7326336,33.0555556 101.541547,33.0555556 C103.350461,33.0555556 104.817081,34.5356181 104.817081,36.3611111" id="Fill-23"></path>
                            <path d="M137.572419,36.3611111 C137.572419,38.1866042 136.105798,39.6666667 134.296885,39.6666667 C132.487971,39.6666667 131.021351,38.1866042 131.021351,36.3611111 C131.021351,34.5356181 132.487971,33.0555556 134.296885,33.0555556 C136.105798,33.0555556 137.572419,34.5356181 137.572419,36.3611111" id="Fill-25"></path>
                            <path d="M170.327757,36.3611111 C170.327757,38.1866042 168.861136,39.6666667 167.052223,39.6666667 C165.243309,39.6666667 163.776689,38.1866042 163.776689,36.3611111 C163.776689,34.5356181 165.243309,33.0555556 167.052223,33.0555556 C168.861136,33.0555556 170.327757,34.5356181 170.327757,36.3611111" id="Fill-27"></path>
                            <path d="M203.083094,36.3611111 C203.083094,38.1866042 201.616474,39.6666667 199.807561,39.6666667 C197.998647,39.6666667 196.532027,38.1866042 196.532027,36.3611111 C196.532027,34.5356181 197.998647,33.0555556 199.807561,33.0555556 C201.616474,33.0555556 203.083094,34.5356181 203.083094,36.3611111" id="Fill-29"></path>
                            <path d="M235.838432,36.3611111 C235.838432,38.1866042 234.371812,39.6666667 232.562898,39.6666667 C230.753985,39.6666667 229.287365,38.1866042 229.287365,36.3611111 C229.287365,34.5356181 230.753985,33.0555556 232.562898,33.0555556 C234.371812,33.0555556 235.838432,34.5356181 235.838432,36.3611111" id="Fill-31"></path>
                            <path d="M6.55106756,69.4166667 C6.55106756,71.2421597 5.08444731,72.7222222 3.27553378,72.7222222 C1.46662025,72.7222222 0,71.2421597 0,69.4166667 C0,67.5911736 1.46662025,66.1111111 3.27553378,66.1111111 C5.08444731,66.1111111 6.55106756,67.5911736 6.55106756,69.4166667" id="Fill-33"></path>
                            <path d="M39.3064054,69.4166667 C39.3064054,71.2421597 37.8397851,72.7222222 36.0308716,72.7222222 C34.221958,72.7222222 32.7553378,71.2421597 32.7553378,69.4166667 C32.7553378,67.5911736 34.221958,66.1111111 36.0308716,66.1111111 C37.8397851,66.1111111 39.3064054,67.5911736 39.3064054,69.4166667" id="Fill-35"></path>
                            <path d="M72.0617431,69.4166667 C72.0617431,71.2421597 70.5951229,72.7222222 68.7862094,72.7222222 C66.9772958,72.7222222 65.5106756,71.2421597 65.5106756,69.4166667 C65.5106756,67.5911736 66.9772958,66.1111111 68.7862094,66.1111111 C70.5951229,66.1111111 72.0617431,67.5911736 72.0617431,69.4166667" id="Fill-37"></path>
                            <path d="M104.817081,69.4166667 C104.817081,71.2421597 103.350461,72.7222222 101.541547,72.7222222 C99.7326336,72.7222222 98.2660134,71.2421597 98.2660134,69.4166667 C98.2660134,67.5911736 99.7326336,66.1111111 101.541547,66.1111111 C103.350461,66.1111111 104.817081,67.5911736 104.817081,69.4166667" id="Fill-39"></path>
                            <path d="M137.572419,69.4166667 C137.572419,71.2421597 136.105798,72.7222222 134.296885,72.7222222 C132.487971,72.7222222 131.021351,71.2421597 131.021351,69.4166667 C131.021351,67.5911736 132.487971,66.1111111 134.296885,66.1111111 C136.105798,66.1111111 137.572419,67.5911736 137.572419,69.4166667" id="Fill-41"></path>
                            <path d="M170.327757,69.4166667 C170.327757,71.2421597 168.861136,72.7222222 167.052223,72.7222222 C165.243309,72.7222222 163.776689,71.2421597 163.776689,69.4166667 C163.776689,67.5911736 165.243309,66.1111111 167.052223,66.1111111 C168.861136,66.1111111 170.327757,67.5911736 170.327757,69.4166667" id="Fill-43"></path>
                            <path d="M203.083094,69.4166667 C203.083094,71.2421597 201.616474,72.7222222 199.807561,72.7222222 C197.998647,72.7222222 196.532027,71.2421597 196.532027,69.4166667 C196.532027,67.5911736 197.998647,66.1111111 199.807561,66.1111111 C201.616474,66.1111111 203.083094,67.5911736 203.083094,69.4166667" id="Fill-45"></path>
                            <path d="M235.838432,69.4166667 C235.838432,71.2421597 234.371812,72.7222222 232.562898,72.7222222 C230.753985,72.7222222 229.287365,71.2421597 229.287365,69.4166667 C229.287365,67.5911736 230.753985,66.1111111 232.562898,66.1111111 C234.371812,66.1111111 235.838432,67.5911736 235.838432,69.4166667" id="Fill-47"></path>
                            <path d="M6.55106756,102.472222 C6.55106756,104.297715 5.08444731,105.777778 3.27553378,105.777778 C1.46662025,105.777778 0,104.297715 0,102.472222 C0,100.646729 1.46662025,99.1666667 3.27553378,99.1666667 C5.08444731,99.1666667 6.55106756,100.646729 6.55106756,102.472222" id="Fill-49"></path>
                            <path d="M39.3064054,102.472222 C39.3064054,104.297715 37.8397851,105.777778 36.0308716,105.777778 C34.221958,105.777778 32.7553378,104.297715 32.7553378,102.472222 C32.7553378,100.646729 34.221958,99.1666667 36.0308716,99.1666667 C37.8397851,99.1666667 39.3064054,100.646729 39.3064054,102.472222" id="Fill-51"></path>
                            <path d="M72.0617431,102.472222 C72.0617431,104.297715 70.5951229,105.777778 68.7862094,105.777778 C66.9772958,105.777778 65.5106756,104.297715 65.5106756,102.472222 C65.5106756,100.646729 66.9772958,99.1666667 68.7862094,99.1666667 C70.5951229,99.1666667 72.0617431,100.646729 72.0617431,102.472222" id="Fill-53"></path>
                            <path d="M104.817081,102.472222 C104.817081,104.297715 103.350461,105.777778 101.541547,105.777778 C99.7326336,105.777778 98.2660134,104.297715 98.2660134,102.472222 C98.2660134,100.646729 99.7326336,99.1666667 101.541547,99.1666667 C103.350461,99.1666667 104.817081,100.646729 104.817081,102.472222" id="Fill-55"></path>
                            <path d="M137.572419,102.472222 C137.572419,104.297715 136.105798,105.777778 134.296885,105.777778 C132.487971,105.777778 131.021351,104.297715 131.021351,102.472222 C131.021351,100.646729 132.487971,99.1666667 134.296885,99.1666667 C136.105798,99.1666667 137.572419,100.646729 137.572419,102.472222" id="Fill-57"></path>
                            <path d="M170.327757,102.472222 C170.327757,104.297715 168.861136,105.777778 167.052223,105.777778 C165.243309,105.777778 163.776689,104.297715 163.776689,102.472222 C163.776689,100.646729 165.243309,99.1666667 167.052223,99.1666667 C168.861136,99.1666667 170.327757,100.646729 170.327757,102.472222" id="Fill-59"></path>
                            <path d="M203.083094,102.472222 C203.083094,104.297715 201.616474,105.777778 199.807561,105.777778 C197.998647,105.777778 196.532027,104.297715 196.532027,102.472222 C196.532027,100.646729 197.998647,99.1666667 199.807561,99.1666667 C201.616474,99.1666667 203.083094,100.646729 203.083094,102.472222" id="Fill-61"></path>
                            <path d="M235.838432,102.472222 C235.838432,104.297715 234.371812,105.777778 232.562898,105.777778 C230.753985,105.777778 229.287365,104.297715 229.287365,102.472222 C229.287365,100.646729 230.753985,99.1666667 232.562898,99.1666667 C234.371812,99.1666667 235.838432,100.646729 235.838432,102.472222" id="Fill-63"></path>
                            <path d="M6.55106756,135.527778 C6.55106756,137.353271 5.08444731,138.833333 3.27553378,138.833333 C1.46662025,138.833333 0,137.353271 0,135.527778 C0,133.702285 1.46662025,132.222222 3.27553378,132.222222 C5.08444731,132.222222 6.55106756,133.702285 6.55106756,135.527778" id="Fill-65"></path>
                            <path d="M39.3064054,135.527778 C39.3064054,137.353271 37.8397851,138.833333 36.0308716,138.833333 C34.221958,138.833333 32.7553378,137.353271 32.7553378,135.527778 C32.7553378,133.702285 34.221958,132.222222 36.0308716,132.222222 C37.8397851,132.222222 39.3064054,133.702285 39.3064054,135.527778" id="Fill-67"></path>
                            <path d="M72.0617431,135.527778 C72.0617431,137.353271 70.5951229,138.833333 68.7862094,138.833333 C66.9772958,138.833333 65.5106756,137.353271 65.5106756,135.527778 C65.5106756,133.702285 66.9772958,132.222222 68.7862094,132.222222 C70.5951229,132.222222 72.0617431,133.702285 72.0617431,135.527778" id="Fill-69"></path>
                            <path d="M104.817081,135.527778 C104.817081,137.353271 103.350461,138.833333 101.541547,138.833333 C99.7326336,138.833333 98.2660134,137.353271 98.2660134,135.527778 C98.2660134,133.702285 99.7326336,132.222222 101.541547,132.222222 C103.350461,132.222222 104.817081,133.702285 104.817081,135.527778" id="Fill-71"></path>
                            <path d="M137.572419,135.527778 C137.572419,137.353271 136.105798,138.833333 134.296885,138.833333 C132.487971,138.833333 131.021351,137.353271 131.021351,135.527778 C131.021351,133.702285 132.487971,132.222222 134.296885,132.222222 C136.105798,132.222222 137.572419,133.702285 137.572419,135.527778" id="Fill-73"></path>
                            <path d="M170.327757,135.527778 C170.327757,137.353271 168.861136,138.833333 167.052223,138.833333 C165.243309,138.833333 163.776689,137.353271 163.776689,135.527778 C163.776689,133.702285 165.243309,132.222222 167.052223,132.222222 C168.861136,132.222222 170.327757,133.702285 170.327757,135.527778" id="Fill-75"></path>
                            <path d="M203.083094,135.527778 C203.083094,137.353271 201.616474,138.833333 199.807561,138.833333 C197.998647,138.833333 196.532027,137.353271 196.532027,135.527778 C196.532027,133.702285 197.998647,132.222222 199.807561,132.222222 C201.616474,132.222222 203.083094,133.702285 203.083094,135.527778" id="Fill-77"></path>
                            <path d="M235.838432,135.527778 C235.838432,137.353271 234.371812,138.833333 232.562898,138.833333 C230.753985,138.833333 229.287365,137.353271 229.287365,135.527778 C229.287365,133.702285 230.753985,132.222222 232.562898,132.222222 C234.371812,132.222222 235.838432,133.702285 235.838432,135.527778" id="Fill-79"></path>
                            <path d="M6.55106756,168.583333 C6.55106756,170.408826 5.08444731,171.888889 3.27553378,171.888889 C1.46662025,171.888889 0,170.408826 0,168.583333 C0,166.75784 1.46662025,165.277778 3.27553378,165.277778 C5.08444731,165.277778 6.55106756,166.75784 6.55106756,168.583333" id="Fill-81"></path>
                            <path d="M39.3064054,168.583333 C39.3064054,170.408826 37.8397851,171.888889 36.0308716,171.888889 C34.221958,171.888889 32.7553378,170.408826 32.7553378,168.583333 C32.7553378,166.75784 34.221958,165.277778 36.0308716,165.277778 C37.8397851,165.277778 39.3064054,166.75784 39.3064054,168.583333" id="Fill-83"></path>
                            <path d="M72.0617431,168.583333 C72.0617431,170.408826 70.5951229,171.888889 68.7862094,171.888889 C66.9772958,171.888889 65.5106756,170.408826 65.5106756,168.583333 C65.5106756,166.75784 66.9772958,165.277778 68.7862094,165.277778 C70.5951229,165.277778 72.0617431,166.75784 72.0617431,168.583333" id="Fill-85"></path>
                            <path d="M104.817081,168.583333 C104.817081,170.408826 103.350461,171.888889 101.541547,171.888889 C99.7326336,171.888889 98.2660134,170.408826 98.2660134,168.583333 C98.2660134,166.75784 99.7326336,165.277778 101.541547,165.277778 C103.350461,165.277778 104.817081,166.75784 104.817081,168.583333" id="Fill-87"></path>
                            <path d="M137.572419,168.583333 C137.572419,170.408826 136.105798,171.888889 134.296885,171.888889 C132.487971,171.888889 131.021351,170.408826 131.021351,168.583333 C131.021351,166.75784 132.487971,165.277778 134.296885,165.277778 C136.105798,165.277778 137.572419,166.75784 137.572419,168.583333" id="Fill-89"></path>
                            <path d="M170.327757,168.583333 C170.327757,170.408826 168.861136,171.888889 167.052223,171.888889 C165.243309,171.888889 163.776689,170.408826 163.776689,168.583333 C163.776689,166.75784 165.243309,165.277778 167.052223,165.277778 C168.861136,165.277778 170.327757,166.75784 170.327757,168.583333" id="Fill-91"></path>
                            <path d="M203.083094,168.583333 C203.083094,170.408826 201.616474,171.888889 199.807561,171.888889 C197.998647,171.888889 196.532027,170.408826 196.532027,168.583333 C196.532027,166.75784 197.998647,165.277778 199.807561,165.277778 C201.616474,165.277778 203.083094,166.75784 203.083094,168.583333" id="Fill-93"></path>
                            <path d="M235.838432,168.583333 C235.838432,170.408826 234.371812,171.888889 232.562898,171.888889 C230.753985,171.888889 229.287365,170.408826 229.287365,168.583333 C229.287365,166.75784 230.753985,165.277778 232.562898,165.277778 C234.371812,165.277778 235.838432,166.75784 235.838432,168.583333" id="Fill-95"></path>
                            <path d="M6.55106756,201.638889 C6.55106756,203.464382 5.08444731,204.944444 3.27553378,204.944444 C1.46662025,204.944444 0,203.464382 0,201.638889 C0,199.813396 1.46662025,198.333333 3.27553378,198.333333 C5.08444731,198.333333 6.55106756,199.813396 6.55106756,201.638889" id="Fill-97"></path>
                            <path d="M39.3064054,201.638889 C39.3064054,203.464382 37.8397851,204.944444 36.0308716,204.944444 C34.221958,204.944444 32.7553378,203.464382 32.7553378,201.638889 C32.7553378,199.813396 34.221958,198.333333 36.0308716,198.333333 C37.8397851,198.333333 39.3064054,199.813396 39.3064054,201.638889" id="Fill-99"></path>
                            <path d="M72.0617431,201.638889 C72.0617431,203.464382 70.5951229,204.944444 68.7862094,204.944444 C66.9772958,204.944444 65.5106756,203.464382 65.5106756,201.638889 C65.5106756,199.813396 66.9772958,198.333333 68.7862094,198.333333 C70.5951229,198.333333 72.0617431,199.813396 72.0617431,201.638889" id="Fill-101"></path>
                            <path d="M104.817081,201.638889 C104.817081,203.464382 103.350461,204.944444 101.541547,204.944444 C99.7326336,204.944444 98.2660134,203.464382 98.2660134,201.638889 C98.2660134,199.813396 99.7326336,198.333333 101.541547,198.333333 C103.350461,198.333333 104.817081,199.813396 104.817081,201.638889" id="Fill-103"></path>
                            <path d="M137.572419,201.638889 C137.572419,203.464382 136.105798,204.944444 134.296885,204.944444 C132.487971,204.944444 131.021351,203.464382 131.021351,201.638889 C131.021351,199.813396 132.487971,198.333333 134.296885,198.333333 C136.105798,198.333333 137.572419,199.813396 137.572419,201.638889" id="Fill-105"></path>
                            <path d="M170.327757,201.638889 C170.327757,203.464382 168.861136,204.944444 167.052223,204.944444 C165.243309,204.944444 163.776689,203.464382 163.776689,201.638889 C163.776689,199.813396 165.243309,198.333333 167.052223,198.333333 C168.861136,198.333333 170.327757,199.813396 170.327757,201.638889" id="Fill-107"></path>
                            <path d="M203.083094,201.638889 C203.083094,203.464382 201.616474,204.944444 199.807561,204.944444 C197.998647,204.944444 196.532027,203.464382 196.532027,201.638889 C196.532027,199.813396 197.998647,198.333333 199.807561,198.333333 C201.616474,198.333333 203.083094,199.813396 203.083094,201.638889" id="Fill-109"></path>
                            <path d="M235.838432,201.638889 C235.838432,203.464382 234.371812,204.944444 232.562898,204.944444 C230.753985,204.944444 229.287365,203.464382 229.287365,201.638889 C229.287365,199.813396 230.753985,198.333333 232.562898,198.333333 C234.371812,198.333333 235.838432,199.813396 235.838432,201.638889" id="Fill-111"></path>
                            <path d="M6.55106756,234.694444 C6.55106756,236.519937 5.08444731,238 3.27553378,238 C1.46662025,238 0,236.519937 0,234.694444 C0,232.868951 1.46662025,231.388889 3.27553378,231.388889 C5.08444731,231.388889 6.55106756,232.868951 6.55106756,234.694444" id="Fill-113"></path>
                            <path d="M39.3064054,234.694444 C39.3064054,236.519937 37.8397851,238 36.0308716,238 C34.221958,238 32.7553378,236.519937 32.7553378,234.694444 C32.7553378,232.868951 34.221958,231.388889 36.0308716,231.388889 C37.8397851,231.388889 39.3064054,232.868951 39.3064054,234.694444" id="Fill-115"></path>
                            <path d="M72.0617431,234.694444 C72.0617431,236.519937 70.5951229,238 68.7862094,238 C66.9772958,238 65.5106756,236.519937 65.5106756,234.694444 C65.5106756,232.868951 66.9772958,231.388889 68.7862094,231.388889 C70.5951229,231.388889 72.0617431,232.868951 72.0617431,234.694444" id="Fill-117"></path>
                            <path d="M104.817081,234.694444 C104.817081,236.519937 103.350461,238 101.541547,238 C99.7326336,238 98.2660134,236.519937 98.2660134,234.694444 C98.2660134,232.868951 99.7326336,231.388889 101.541547,231.388889 C103.350461,231.388889 104.817081,232.868951 104.817081,234.694444" id="Fill-119"></path>
                            <path d="M137.572419,234.694444 C137.572419,236.519937 136.105798,238 134.296885,238 C132.487971,238 131.021351,236.519937 131.021351,234.694444 C131.021351,232.868951 132.487971,231.388889 134.296885,231.388889 C136.105798,231.388889 137.572419,232.868951 137.572419,234.694444" id="Fill-121"></path>
                            <path d="M170.327757,234.694444 C170.327757,236.519937 168.861136,238 167.052223,238 C165.243309,238 163.776689,236.519937 163.776689,234.694444 C163.776689,232.868951 165.243309,231.388889 167.052223,231.388889 C168.861136,231.388889 170.327757,232.868951 170.327757,234.694444" id="Fill-123"></path>
                            <path d="M203.083094,234.694444 C203.083094,236.519937 201.616474,238 199.807561,238 C197.998647,238 196.532027,236.519937 196.532027,234.694444 C196.532027,232.868951 197.998647,231.388889 199.807561,231.388889 C201.616474,231.388889 203.083094,232.868951 203.083094,234.694444" id="Fill-125"></path>
                            <path d="M235.838432,234.694444 C235.838432,236.519937 234.371812,238 232.562898,238 C230.753985,238 229.287365,236.519937 229.287365,234.694444 C229.287365,232.868951 230.753985,231.388889 232.562898,231.388889 C234.371812,231.388889 235.838432,232.868951 235.838432,234.694444" id="Fill-127"></path>
                        </g>
                    </g>
                    <g id="Oval">
                        <use fill="black" fill-opacity="1" filter="url(#filter-2)" xlink:href="#path-1"></use>
                        <use stroke="#FFFFFF" stroke-width="4" xlink:href="#path-1"></use>
                    </g>
                    <g id="Ornament/Dotted/white" opacity="0.270089286" transform="translate(699.587954, 511.000000)" fill="#FFFFFF">
                        <g>
                            <path d="M6.55106756,3.30555556 C6.55106756,5.13104861 5.08444731,6.61111111 3.27553378,6.61111111 C1.46662025,6.61111111 0,5.13104861 0,3.30555556 C0,1.4800625 1.46662025,0 3.27553378,0 C5.08444731,0 6.55106756,1.4800625 6.55106756,3.30555556" id="Fill-1"></path>
                            <path d="M39.3064054,3.30555556 C39.3064054,5.13104861 37.8397851,6.61111111 36.0308716,6.61111111 C34.221958,6.61111111 32.7553378,5.13104861 32.7553378,3.30555556 C32.7553378,1.4800625 34.221958,0 36.0308716,0 C37.8397851,0 39.3064054,1.4800625 39.3064054,3.30555556" id="Fill-3"></path>
                            <path d="M72.0617431,3.30555556 C72.0617431,5.13104861 70.5951229,6.61111111 68.7862094,6.61111111 C66.9772958,6.61111111 65.5106756,5.13104861 65.5106756,3.30555556 C65.5106756,1.4800625 66.9772958,0 68.7862094,0 C70.5951229,0 72.0617431,1.4800625 72.0617431,3.30555556" id="Fill-5"></path>
                            <path d="M104.817081,3.30555556 C104.817081,5.13104861 103.350461,6.61111111 101.541547,6.61111111 C99.7326336,6.61111111 98.2660134,5.13104861 98.2660134,3.30555556 C98.2660134,1.4800625 99.7326336,0 101.541547,0 C103.350461,0 104.817081,1.4800625 104.817081,3.30555556" id="Fill-7"></path>
                            <path d="M137.572419,3.30555556 C137.572419,5.13104861 136.105798,6.61111111 134.296885,6.61111111 C132.487971,6.61111111 131.021351,5.13104861 131.021351,3.30555556 C131.021351,1.4800625 132.487971,0 134.296885,0 C136.105798,0 137.572419,1.4800625 137.572419,3.30555556" id="Fill-9"></path>
                            <path d="M170.327757,3.30555556 C170.327757,5.13104861 168.861136,6.61111111 167.052223,6.61111111 C165.243309,6.61111111 163.776689,5.13104861 163.776689,3.30555556 C163.776689,1.4800625 165.243309,0 167.052223,0 C168.861136,0 170.327757,1.4800625 170.327757,3.30555556" id="Fill-11"></path>
                            <path d="M203.083094,3.30555556 C203.083094,5.13104861 201.616474,6.61111111 199.807561,6.61111111 C197.998647,6.61111111 196.532027,5.13104861 196.532027,3.30555556 C196.532027,1.4800625 197.998647,0 199.807561,0 C201.616474,0 203.083094,1.4800625 203.083094,3.30555556" id="Fill-13"></path>
                            <path d="M235.838432,3.30555556 C235.838432,5.13104861 234.371812,6.61111111 232.562898,6.61111111 C230.753985,6.61111111 229.287365,5.13104861 229.287365,3.30555556 C229.287365,1.4800625 230.753985,0 232.562898,0 C234.371812,0 235.838432,1.4800625 235.838432,3.30555556" id="Fill-15"></path>
                            <path d="M6.55106756,36.3611111 C6.55106756,38.1866042 5.08444731,39.6666667 3.27553378,39.6666667 C1.46662025,39.6666667 0,38.1866042 0,36.3611111 C0,34.5356181 1.46662025,33.0555556 3.27553378,33.0555556 C5.08444731,33.0555556 6.55106756,34.5356181 6.55106756,36.3611111" id="Fill-17"></path>
                            <path d="M39.3064054,36.3611111 C39.3064054,38.1866042 37.8397851,39.6666667 36.0308716,39.6666667 C34.221958,39.6666667 32.7553378,38.1866042 32.7553378,36.3611111 C32.7553378,34.5356181 34.221958,33.0555556 36.0308716,33.0555556 C37.8397851,33.0555556 39.3064054,34.5356181 39.3064054,36.3611111" id="Fill-19"></path>
                            <path d="M72.0617431,36.3611111 C72.0617431,38.1866042 70.5951229,39.6666667 68.7862094,39.6666667 C66.9772958,39.6666667 65.5106756,38.1866042 65.5106756,36.3611111 C65.5106756,34.5356181 66.9772958,33.0555556 68.7862094,33.0555556 C70.5951229,33.0555556 72.0617431,34.5356181 72.0617431,36.3611111" id="Fill-21"></path>
                            <path d="M104.817081,36.3611111 C104.817081,38.1866042 103.350461,39.6666667 101.541547,39.6666667 C99.7326336,39.6666667 98.2660134,38.1866042 98.2660134,36.3611111 C98.2660134,34.5356181 99.7326336,33.0555556 101.541547,33.0555556 C103.350461,33.0555556 104.817081,34.5356181 104.817081,36.3611111" id="Fill-23"></path>
                            <path d="M137.572419,36.3611111 C137.572419,38.1866042 136.105798,39.6666667 134.296885,39.6666667 C132.487971,39.6666667 131.021351,38.1866042 131.021351,36.3611111 C131.021351,34.5356181 132.487971,33.0555556 134.296885,33.0555556 C136.105798,33.0555556 137.572419,34.5356181 137.572419,36.3611111" id="Fill-25"></path>
                            <path d="M170.327757,36.3611111 C170.327757,38.1866042 168.861136,39.6666667 167.052223,39.6666667 C165.243309,39.6666667 163.776689,38.1866042 163.776689,36.3611111 C163.776689,34.5356181 165.243309,33.0555556 167.052223,33.0555556 C168.861136,33.0555556 170.327757,34.5356181 170.327757,36.3611111" id="Fill-27"></path>
                            <path d="M203.083094,36.3611111 C203.083094,38.1866042 201.616474,39.6666667 199.807561,39.6666667 C197.998647,39.6666667 196.532027,38.1866042 196.532027,36.3611111 C196.532027,34.5356181 197.998647,33.0555556 199.807561,33.0555556 C201.616474,33.0555556 203.083094,34.5356181 203.083094,36.3611111" id="Fill-29"></path>
                            <path d="M235.838432,36.3611111 C235.838432,38.1866042 234.371812,39.6666667 232.562898,39.6666667 C230.753985,39.6666667 229.287365,38.1866042 229.287365,36.3611111 C229.287365,34.5356181 230.753985,33.0555556 232.562898,33.0555556 C234.371812,33.0555556 235.838432,34.5356181 235.838432,36.3611111" id="Fill-31"></path>
                            <path d="M6.55106756,69.4166667 C6.55106756,71.2421597 5.08444731,72.7222222 3.27553378,72.7222222 C1.46662025,72.7222222 0,71.2421597 0,69.4166667 C0,67.5911736 1.46662025,66.1111111 3.27553378,66.1111111 C5.08444731,66.1111111 6.55106756,67.5911736 6.55106756,69.4166667" id="Fill-33"></path>
                            <path d="M39.3064054,69.4166667 C39.3064054,71.2421597 37.8397851,72.7222222 36.0308716,72.7222222 C34.221958,72.7222222 32.7553378,71.2421597 32.7553378,69.4166667 C32.7553378,67.5911736 34.221958,66.1111111 36.0308716,66.1111111 C37.8397851,66.1111111 39.3064054,67.5911736 39.3064054,69.4166667" id="Fill-35"></path>
                            <path d="M72.0617431,69.4166667 C72.0617431,71.2421597 70.5951229,72.7222222 68.7862094,72.7222222 C66.9772958,72.7222222 65.5106756,71.2421597 65.5106756,69.4166667 C65.5106756,67.5911736 66.9772958,66.1111111 68.7862094,66.1111111 C70.5951229,66.1111111 72.0617431,67.5911736 72.0617431,69.4166667" id="Fill-37"></path>
                            <path d="M104.817081,69.4166667 C104.817081,71.2421597 103.350461,72.7222222 101.541547,72.7222222 C99.7326336,72.7222222 98.2660134,71.2421597 98.2660134,69.4166667 C98.2660134,67.5911736 99.7326336,66.1111111 101.541547,66.1111111 C103.350461,66.1111111 104.817081,67.5911736 104.817081,69.4166667" id="Fill-39"></path>
                            <path d="M137.572419,69.4166667 C137.572419,71.2421597 136.105798,72.7222222 134.296885,72.7222222 C132.487971,72.7222222 131.021351,71.2421597 131.021351,69.4166667 C131.021351,67.5911736 132.487971,66.1111111 134.296885,66.1111111 C136.105798,66.1111111 137.572419,67.5911736 137.572419,69.4166667" id="Fill-41"></path>
                            <path d="M170.327757,69.4166667 C170.327757,71.2421597 168.861136,72.7222222 167.052223,72.7222222 C165.243309,72.7222222 163.776689,71.2421597 163.776689,69.4166667 C163.776689,67.5911736 165.243309,66.1111111 167.052223,66.1111111 C168.861136,66.1111111 170.327757,67.5911736 170.327757,69.4166667" id="Fill-43"></path>
                            <path d="M203.083094,69.4166667 C203.083094,71.2421597 201.616474,72.7222222 199.807561,72.7222222 C197.998647,72.7222222 196.532027,71.2421597 196.532027,69.4166667 C196.532027,67.5911736 197.998647,66.1111111 199.807561,66.1111111 C201.616474,66.1111111 203.083094,67.5911736 203.083094,69.4166667" id="Fill-45"></path>
                            <path d="M235.838432,69.4166667 C235.838432,71.2421597 234.371812,72.7222222 232.562898,72.7222222 C230.753985,72.7222222 229.287365,71.2421597 229.287365,69.4166667 C229.287365,67.5911736 230.753985,66.1111111 232.562898,66.1111111 C234.371812,66.1111111 235.838432,67.5911736 235.838432,69.4166667" id="Fill-47"></path>
                            <path d="M6.55106756,102.472222 C6.55106756,104.297715 5.08444731,105.777778 3.27553378,105.777778 C1.46662025,105.777778 0,104.297715 0,102.472222 C0,100.646729 1.46662025,99.1666667 3.27553378,99.1666667 C5.08444731,99.1666667 6.55106756,100.646729 6.55106756,102.472222" id="Fill-49"></path>
                            <path d="M39.3064054,102.472222 C39.3064054,104.297715 37.8397851,105.777778 36.0308716,105.777778 C34.221958,105.777778 32.7553378,104.297715 32.7553378,102.472222 C32.7553378,100.646729 34.221958,99.1666667 36.0308716,99.1666667 C37.8397851,99.1666667 39.3064054,100.646729 39.3064054,102.472222" id="Fill-51"></path>
                            <path d="M72.0617431,102.472222 C72.0617431,104.297715 70.5951229,105.777778 68.7862094,105.777778 C66.9772958,105.777778 65.5106756,104.297715 65.5106756,102.472222 C65.5106756,100.646729 66.9772958,99.1666667 68.7862094,99.1666667 C70.5951229,99.1666667 72.0617431,100.646729 72.0617431,102.472222" id="Fill-53"></path>
                            <path d="M104.817081,102.472222 C104.817081,104.297715 103.350461,105.777778 101.541547,105.777778 C99.7326336,105.777778 98.2660134,104.297715 98.2660134,102.472222 C98.2660134,100.646729 99.7326336,99.1666667 101.541547,99.1666667 C103.350461,99.1666667 104.817081,100.646729 104.817081,102.472222" id="Fill-55"></path>
                            <path d="M137.572419,102.472222 C137.572419,104.297715 136.105798,105.777778 134.296885,105.777778 C132.487971,105.777778 131.021351,104.297715 131.021351,102.472222 C131.021351,100.646729 132.487971,99.1666667 134.296885,99.1666667 C136.105798,99.1666667 137.572419,100.646729 137.572419,102.472222" id="Fill-57"></path>
                            <path d="M170.327757,102.472222 C170.327757,104.297715 168.861136,105.777778 167.052223,105.777778 C165.243309,105.777778 163.776689,104.297715 163.776689,102.472222 C163.776689,100.646729 165.243309,99.1666667 167.052223,99.1666667 C168.861136,99.1666667 170.327757,100.646729 170.327757,102.472222" id="Fill-59"></path>
                            <path d="M203.083094,102.472222 C203.083094,104.297715 201.616474,105.777778 199.807561,105.777778 C197.998647,105.777778 196.532027,104.297715 196.532027,102.472222 C196.532027,100.646729 197.998647,99.1666667 199.807561,99.1666667 C201.616474,99.1666667 203.083094,100.646729 203.083094,102.472222" id="Fill-61"></path>
                            <path d="M235.838432,102.472222 C235.838432,104.297715 234.371812,105.777778 232.562898,105.777778 C230.753985,105.777778 229.287365,104.297715 229.287365,102.472222 C229.287365,100.646729 230.753985,99.1666667 232.562898,99.1666667 C234.371812,99.1666667 235.838432,100.646729 235.838432,102.472222" id="Fill-63"></path>
                            <path d="M6.55106756,135.527778 C6.55106756,137.353271 5.08444731,138.833333 3.27553378,138.833333 C1.46662025,138.833333 0,137.353271 0,135.527778 C0,133.702285 1.46662025,132.222222 3.27553378,132.222222 C5.08444731,132.222222 6.55106756,133.702285 6.55106756,135.527778" id="Fill-65"></path>
                            <path d="M39.3064054,135.527778 C39.3064054,137.353271 37.8397851,138.833333 36.0308716,138.833333 C34.221958,138.833333 32.7553378,137.353271 32.7553378,135.527778 C32.7553378,133.702285 34.221958,132.222222 36.0308716,132.222222 C37.8397851,132.222222 39.3064054,133.702285 39.3064054,135.527778" id="Fill-67"></path>
                            <path d="M72.0617431,135.527778 C72.0617431,137.353271 70.5951229,138.833333 68.7862094,138.833333 C66.9772958,138.833333 65.5106756,137.353271 65.5106756,135.527778 C65.5106756,133.702285 66.9772958,132.222222 68.7862094,132.222222 C70.5951229,132.222222 72.0617431,133.702285 72.0617431,135.527778" id="Fill-69"></path>
                            <path d="M104.817081,135.527778 C104.817081,137.353271 103.350461,138.833333 101.541547,138.833333 C99.7326336,138.833333 98.2660134,137.353271 98.2660134,135.527778 C98.2660134,133.702285 99.7326336,132.222222 101.541547,132.222222 C103.350461,132.222222 104.817081,133.702285 104.817081,135.527778" id="Fill-71"></path>
                            <path d="M137.572419,135.527778 C137.572419,137.353271 136.105798,138.833333 134.296885,138.833333 C132.487971,138.833333 131.021351,137.353271 131.021351,135.527778 C131.021351,133.702285 132.487971,132.222222 134.296885,132.222222 C136.105798,132.222222 137.572419,133.702285 137.572419,135.527778" id="Fill-73"></path>
                            <path d="M170.327757,135.527778 C170.327757,137.353271 168.861136,138.833333 167.052223,138.833333 C165.243309,138.833333 163.776689,137.353271 163.776689,135.527778 C163.776689,133.702285 165.243309,132.222222 167.052223,132.222222 C168.861136,132.222222 170.327757,133.702285 170.327757,135.527778" id="Fill-75"></path>
                            <path d="M203.083094,135.527778 C203.083094,137.353271 201.616474,138.833333 199.807561,138.833333 C197.998647,138.833333 196.532027,137.353271 196.532027,135.527778 C196.532027,133.702285 197.998647,132.222222 199.807561,132.222222 C201.616474,132.222222 203.083094,133.702285 203.083094,135.527778" id="Fill-77"></path>
                            <path d="M235.838432,135.527778 C235.838432,137.353271 234.371812,138.833333 232.562898,138.833333 C230.753985,138.833333 229.287365,137.353271 229.287365,135.527778 C229.287365,133.702285 230.753985,132.222222 232.562898,132.222222 C234.371812,132.222222 235.838432,133.702285 235.838432,135.527778" id="Fill-79"></path>
                            <path d="M6.55106756,168.583333 C6.55106756,170.408826 5.08444731,171.888889 3.27553378,171.888889 C1.46662025,171.888889 0,170.408826 0,168.583333 C0,166.75784 1.46662025,165.277778 3.27553378,165.277778 C5.08444731,165.277778 6.55106756,166.75784 6.55106756,168.583333" id="Fill-81"></path>
                            <path d="M39.3064054,168.583333 C39.3064054,170.408826 37.8397851,171.888889 36.0308716,171.888889 C34.221958,171.888889 32.7553378,170.408826 32.7553378,168.583333 C32.7553378,166.75784 34.221958,165.277778 36.0308716,165.277778 C37.8397851,165.277778 39.3064054,166.75784 39.3064054,168.583333" id="Fill-83"></path>
                            <path d="M72.0617431,168.583333 C72.0617431,170.408826 70.5951229,171.888889 68.7862094,171.888889 C66.9772958,171.888889 65.5106756,170.408826 65.5106756,168.583333 C65.5106756,166.75784 66.9772958,165.277778 68.7862094,165.277778 C70.5951229,165.277778 72.0617431,166.75784 72.0617431,168.583333" id="Fill-85"></path>
                            <path d="M104.817081,168.583333 C104.817081,170.408826 103.350461,171.888889 101.541547,171.888889 C99.7326336,171.888889 98.2660134,170.408826 98.2660134,168.583333 C98.2660134,166.75784 99.7326336,165.277778 101.541547,165.277778 C103.350461,165.277778 104.817081,166.75784 104.817081,168.583333" id="Fill-87"></path>
                            <path d="M137.572419,168.583333 C137.572419,170.408826 136.105798,171.888889 134.296885,171.888889 C132.487971,171.888889 131.021351,170.408826 131.021351,168.583333 C131.021351,166.75784 132.487971,165.277778 134.296885,165.277778 C136.105798,165.277778 137.572419,166.75784 137.572419,168.583333" id="Fill-89"></path>
                            <path d="M170.327757,168.583333 C170.327757,170.408826 168.861136,171.888889 167.052223,171.888889 C165.243309,171.888889 163.776689,170.408826 163.776689,168.583333 C163.776689,166.75784 165.243309,165.277778 167.052223,165.277778 C168.861136,165.277778 170.327757,166.75784 170.327757,168.583333" id="Fill-91"></path>
                            <path d="M203.083094,168.583333 C203.083094,170.408826 201.616474,171.888889 199.807561,171.888889 C197.998647,171.888889 196.532027,170.408826 196.532027,168.583333 C196.532027,166.75784 197.998647,165.277778 199.807561,165.277778 C201.616474,165.277778 203.083094,166.75784 203.083094,168.583333" id="Fill-93"></path>
                            <path d="M235.838432,168.583333 C235.838432,170.408826 234.371812,171.888889 232.562898,171.888889 C230.753985,171.888889 229.287365,170.408826 229.287365,168.583333 C229.287365,166.75784 230.753985,165.277778 232.562898,165.277778 C234.371812,165.277778 235.838432,166.75784 235.838432,168.583333" id="Fill-95"></path>
                            <path d="M6.55106756,201.638889 C6.55106756,203.464382 5.08444731,204.944444 3.27553378,204.944444 C1.46662025,204.944444 0,203.464382 0,201.638889 C0,199.813396 1.46662025,198.333333 3.27553378,198.333333 C5.08444731,198.333333 6.55106756,199.813396 6.55106756,201.638889" id="Fill-97"></path>
                            <path d="M39.3064054,201.638889 C39.3064054,203.464382 37.8397851,204.944444 36.0308716,204.944444 C34.221958,204.944444 32.7553378,203.464382 32.7553378,201.638889 C32.7553378,199.813396 34.221958,198.333333 36.0308716,198.333333 C37.8397851,198.333333 39.3064054,199.813396 39.3064054,201.638889" id="Fill-99"></path>
                            <path d="M72.0617431,201.638889 C72.0617431,203.464382 70.5951229,204.944444 68.7862094,204.944444 C66.9772958,204.944444 65.5106756,203.464382 65.5106756,201.638889 C65.5106756,199.813396 66.9772958,198.333333 68.7862094,198.333333 C70.5951229,198.333333 72.0617431,199.813396 72.0617431,201.638889" id="Fill-101"></path>
                            <path d="M104.817081,201.638889 C104.817081,203.464382 103.350461,204.944444 101.541547,204.944444 C99.7326336,204.944444 98.2660134,203.464382 98.2660134,201.638889 C98.2660134,199.813396 99.7326336,198.333333 101.541547,198.333333 C103.350461,198.333333 104.817081,199.813396 104.817081,201.638889" id="Fill-103"></path>
                            <path d="M137.572419,201.638889 C137.572419,203.464382 136.105798,204.944444 134.296885,204.944444 C132.487971,204.944444 131.021351,203.464382 131.021351,201.638889 C131.021351,199.813396 132.487971,198.333333 134.296885,198.333333 C136.105798,198.333333 137.572419,199.813396 137.572419,201.638889" id="Fill-105"></path>
                            <path d="M170.327757,201.638889 C170.327757,203.464382 168.861136,204.944444 167.052223,204.944444 C165.243309,204.944444 163.776689,203.464382 163.776689,201.638889 C163.776689,199.813396 165.243309,198.333333 167.052223,198.333333 C168.861136,198.333333 170.327757,199.813396 170.327757,201.638889" id="Fill-107"></path>
                            <path d="M203.083094,201.638889 C203.083094,203.464382 201.616474,204.944444 199.807561,204.944444 C197.998647,204.944444 196.532027,203.464382 196.532027,201.638889 C196.532027,199.813396 197.998647,198.333333 199.807561,198.333333 C201.616474,198.333333 203.083094,199.813396 203.083094,201.638889" id="Fill-109"></path>
                            <path d="M235.838432,201.638889 C235.838432,203.464382 234.371812,204.944444 232.562898,204.944444 C230.753985,204.944444 229.287365,203.464382 229.287365,201.638889 C229.287365,199.813396 230.753985,198.333333 232.562898,198.333333 C234.371812,198.333333 235.838432,199.813396 235.838432,201.638889" id="Fill-111"></path>
                            <path d="M6.55106756,234.694444 C6.55106756,236.519937 5.08444731,238 3.27553378,238 C1.46662025,238 0,236.519937 0,234.694444 C0,232.868951 1.46662025,231.388889 3.27553378,231.388889 C5.08444731,231.388889 6.55106756,232.868951 6.55106756,234.694444" id="Fill-113"></path>
                            <path d="M39.3064054,234.694444 C39.3064054,236.519937 37.8397851,238 36.0308716,238 C34.221958,238 32.7553378,236.519937 32.7553378,234.694444 C32.7553378,232.868951 34.221958,231.388889 36.0308716,231.388889 C37.8397851,231.388889 39.3064054,232.868951 39.3064054,234.694444" id="Fill-115"></path>
                            <path d="M72.0617431,234.694444 C72.0617431,236.519937 70.5951229,238 68.7862094,238 C66.9772958,238 65.5106756,236.519937 65.5106756,234.694444 C65.5106756,232.868951 66.9772958,231.388889 68.7862094,231.388889 C70.5951229,231.388889 72.0617431,232.868951 72.0617431,234.694444" id="Fill-117"></path>
                            <path d="M104.817081,234.694444 C104.817081,236.519937 103.350461,238 101.541547,238 C99.7326336,238 98.2660134,236.519937 98.2660134,234.694444 C98.2660134,232.868951 99.7326336,231.388889 101.541547,231.388889 C103.350461,231.388889 104.817081,232.868951 104.817081,234.694444" id="Fill-119"></path>
                            <path d="M137.572419,234.694444 C137.572419,236.519937 136.105798,238 134.296885,238 C132.487971,238 131.021351,236.519937 131.021351,234.694444 C131.021351,232.868951 132.487971,231.388889 134.296885,231.388889 C136.105798,231.388889 137.572419,232.868951 137.572419,234.694444" id="Fill-121"></path>
                            <path d="M170.327757,234.694444 C170.327757,236.519937 168.861136,238 167.052223,238 C165.243309,238 163.776689,236.519937 163.776689,234.694444 C163.776689,232.868951 165.243309,231.388889 167.052223,231.388889 C168.861136,231.388889 170.327757,232.868951 170.327757,234.694444" id="Fill-123"></path>
                            <path d="M203.083094,234.694444 C203.083094,236.519937 201.616474,238 199.807561,238 C197.998647,238 196.532027,236.519937 196.532027,234.694444 C196.532027,232.868951 197.998647,231.388889 199.807561,231.388889 C201.616474,231.388889 203.083094,232.868951 203.083094,234.694444" id="Fill-125"></path>
                            <path d="M235.838432,234.694444 C235.838432,236.519937 234.371812,238 232.562898,238 C230.753985,238 229.287365,236.519937 229.287365,234.694444 C229.287365,232.868951 230.753985,231.388889 232.562898,231.388889 C234.371812,231.388889 235.838432,232.868951 235.838432,234.694444" id="Fill-127"></path>
                        </g>
                    </g>
                    <polygon id="Rectangle2" stroke="#FFFFFF" stroke-width="4" transform="translate(1192.074092, 721.000000) rotate(-315.000000) translate(-1192.074092, -721.000000) " points="1182.07409 711 1201.98327 711.090822 1202.07409 731 1182.16491 730.909178"></polygon>
                </g>
            </g>
        </g>
    </g>
</svg>
