<?xml version="1.0" encoding="UTF-8"?>
<svg width="76px" height="78px" viewBox="0 0 76 78" version="1.1" xmlns="http://www.w3.org/2000/svg" xmlns:xlink="http://www.w3.org/1999/xlink">
    <title>Icon</title>
    <defs>
        <path d="M60.6521586,10.2317905 C42.6521586,-7.54863177 27.3200407,0.537677283 24.6521586,14.0838212 C21.9842765,27.6299652 -2.79876327,30.3346666 0.261187502,46.3346666 C3.32113827,62.3346666 36.6521586,52.8346666 36.6521586,67.3346666 C36.6521586,81.8346666 75.1895892,81.3346666 75.1895892,62.3346666 C75.1895892,43.3346666 78.6521586,28.0122127 60.6521586,10.2317905 Z" id="path-1"></path>
    </defs>
    <g id="Main-Files" stroke="none" stroke-width="1" fill="none" fill-rule="evenodd">
        <g id="02_Index_Portfolio" transform="translate(-265.000000, -1869.000000)">
            <g id="02_About-&amp;-Expertise" transform="translate(0.000000, 771.000000)">
                <g id="Expertise" transform="translate(150.000000, 788.000000)">
                    <g id="Skill-1" transform="translate(0.000000, 255.000000)">
                        <g id="Icon" transform="translate(115.000000, 55.000000)">
                            <g id="Ornament/bgicon">
                                <mask id="mask-2" fill="white">
                                    <use xlink:href="#path-1"></use>
                                </mask>
                                <use id="bgicon" fill-opacity="0.2" fill="#FFFFFF" fill-rule="evenodd" xlink:href="#path-1"></use>
                                <g id="Color/Primary" opacity="0.2" mask="url(#mask-2)" fill="#459EFF" fill-rule="evenodd">
                                    <rect id="Rectangle" x="0" y="0" width="76" height="78"></rect>
                                </g>
                            </g>
                            <g id="icon/home/desktop" transform="translate(10.000000, 11.000000)" stroke-linecap="round" stroke-linejoin="round">
                                <g id="icon/desktop" transform="translate(0.000000, 3.000000)">
                                    <g id="Group-7" stroke="#333333" stroke-width="3">
                                        <polygon id="Stroke-1" points="0 38 56 38 56 0 0 0"></polygon>
                                        <polygon id="Stroke-3" points="22 48 34 48 34 38 22 38"></polygon>
                                        <polygon id="Stroke-4" points="22 48 34 48 34 38 22 38"></polygon>
                                        <line x1="10" y1="48" x2="44" y2="48" id="Stroke-5"></line>
                                        <line x1="0" y1="30.4004" x2="54" y2="30.4004" id="Stroke-6"></line>
                                    </g>
                                    <polyline id="Stroke-8" stroke="#459EFF" stroke-width="3" points="40 10 46 12 30 20 26 14 10 22"></polyline>
                                    <line x1="44" y1="18" x2="46" y2="12" id="Stroke-9" stroke="#459EFF" stroke-width="3"></line>
                                </g>
                            </g>
                        </g>
                    </g>
                </g>
            </g>
        </g>
    </g>
</svg>