<svg id="Group_3" data-name="Group 3" xmlns="http://www.w3.org/2000/svg" xmlns:xlink="http://www.w3.org/1999/xlink" width="13" height="13" viewBox="0 0 13 13">
  <defs>
    <clipPath id="clip-path">
      <path id="Clip_2" data-name="Clip 2" d="M0,0H13V13H0Z" fill="none"/>
    </clipPath>
  </defs>
  <path id="Clip_2-2" data-name="Clip 2" d="M0,0H13V13H0Z" fill="none"/>
  <g id="Group_3-2" data-name="Group 3" clip-path="url(#clip-path)">
    <path id="Fill_1" data-name="Fill 1" d="M6.5,13c-1.755,0-1.986-.008-2.68-.039a4.793,4.793,0,0,1-1.578-.3,3.2,3.2,0,0,1-1.152-.75,3.189,3.189,0,0,1-.75-1.151,4.818,4.818,0,0,1-.3-1.578C.008,8.486,0,8.256,0,6.5S.008,4.514.039,3.82a4.817,4.817,0,0,1,.3-1.578,3.2,3.2,0,0,1,.75-1.152A3.2,3.2,0,0,1,2.242.341,4.817,4.817,0,0,1,3.82.039C4.514.008,4.745,0,6.5,0S8.486.008,9.18.039a4.818,4.818,0,0,1,1.578.3,3.189,3.189,0,0,1,1.151.75,3.2,3.2,0,0,1,.75,1.152,4.793,4.793,0,0,1,.3,1.578c.032.694.039.925.039,2.68s-.008,1.986-.039,2.68a4.794,4.794,0,0,1-.3,1.578,3.325,3.325,0,0,1-1.9,1.9,4.794,4.794,0,0,1-1.578.3C8.486,12.993,8.256,13,6.5,13Zm0-11.83c-1.737,0-1.942.007-2.627.038a3.569,3.569,0,0,0-1.207.224,2.014,2.014,0,0,0-.748.486,2.014,2.014,0,0,0-.486.748,3.569,3.569,0,0,0-.224,1.207c-.032.685-.038.89-.038,2.627s.007,1.941.038,2.627a3.569,3.569,0,0,0,.224,1.207,2.012,2.012,0,0,0,.486.747,2.014,2.014,0,0,0,.748.486,3.585,3.585,0,0,0,1.207.224c.688.031.894.038,2.627.038s1.939-.007,2.627-.038a3.585,3.585,0,0,0,1.207-.224,2.155,2.155,0,0,0,1.234-1.234,3.585,3.585,0,0,0,.224-1.207c.031-.689.038-.895.038-2.627s-.007-1.939-.038-2.627a3.585,3.585,0,0,0-.224-1.207,2.014,2.014,0,0,0-.486-.748,2.012,2.012,0,0,0-.747-.486,3.569,3.569,0,0,0-1.207-.224C8.442,1.178,8.237,1.171,6.5,1.171Zm0,8.667A3.338,3.338,0,1,1,9.838,6.5,3.342,3.342,0,0,1,6.5,9.838Zm0-5.5A2.167,2.167,0,1,0,8.666,6.5,2.169,2.169,0,0,0,6.5,4.333ZM9.97,3.81a.78.78,0,1,1,.78-.78A.781.781,0,0,1,9.97,3.81Z" transform="translate(0 0)" fill="#dbdbdb"/>
  </g>
</svg>
