<?xml version="1.0" encoding="UTF-8"?>
<svg width="56px" height="52px" viewBox="0 0 56 52" version="1.1" xmlns="http://www.w3.org/2000/svg" xmlns:xlink="http://www.w3.org/1999/xlink">
    <title>Group 11</title>
    <g id="Symbols" stroke="none" stroke-width="1" fill="none" fill-rule="evenodd" stroke-linecap="round" stroke-linejoin="round">
        <g id="icon/home/quote" transform="translate(-2.000000, -2.000000)" stroke="#459EFF" stroke-width="3">
            <g id="Group-11" transform="translate(4.000000, 4.000000)">
                <path d="M26,0 C11.6405714,0 0,9.09230769 0,20.3076923 C0,25.4584615 2.47557143,30.1476923 6.52228571,33.7273846 C4.74685714,40.7907692 1.85714286,48 1.85714286,48 C6.20842857,46.2683077 12.2571429,42.3083077 16.1534286,39.0978462 C19.1917143,40.0707692 22.5141429,40.6153846 26,40.6153846 C40.3594286,40.6153846 52,31.5230769 52,20.3076923 C52,9.09230769 40.3594286,0 26,0 Z" id="Stroke-1"></path>
                <path d="M20,10 C14,10 14,13.582 14,18 L14,24" id="Stroke-3"></path>
                <path d="M20,20 L16,20 C14.894,20 14,20.894 14,22 L14,26 C14,27.106 14.894,28 16,28 L20,28 C21.106,28 22,27.106 22,26 L22,22 C22,20.894 21.106,20 20,20 Z" id="Stroke-5"></path>
                <path d="M36,10 C30,10 30,13.582 30,18 L30,24" id="Stroke-7"></path>
                <path d="M36,20 L32,20 C30.894,20 30,20.894 30,22 L30,26 C30,27.106 30.894,28 32,28 L36,28 C37.106,28 38,27.106 38,26 L38,22 C38,20.894 37.106,20 36,20 Z" id="Stroke-9"></path>
            </g>
        </g>
    </g>
</svg>